<svg xmlns="http://www.w3.org/2000/svg" viewBox="0 0 1200 630" width="1200" height="630" role="img" aria-labelledby="t">
  <title id="t">robotmaaierkompas.nl: Welke robotmaaier past bij jouw tuin?</title>
  <rect width="1200" height="630" fill="#133B26"/>
  <g transform="translate(520 40) scale(1.25)"><g fill="none" stroke="#184C31" stroke-width="1.6" opacity="1"><path d="M-40 330c90-50 140-140 240-150s190 60 260 25 120-40 180-30"/><path d="M-40 285c100-45 140-125 230-133s180 45 270 10 120-35 180-25"/><path d="M-40 240c100-45 140-100 215-107s170 35 280 0 120-30 185-20"/><path d="M-40 195c110-45 140-82 205-85s160 25 290-10 120-25 185-15"/><path d="M-40 150c120-40 150-60 195-62s150 12 300-24 120-20 185-10"/><path d="M-40 105c120-34 155-38 190-38s140 5 305-35 120-15 185-5"/><path d="M-40 60c125-28 160-26 185-25s130-2 310-45 120-10 185 0"/></g></g>
  <g transform="translate(985 330)">
    <circle r="165" fill="none" stroke="#1E5E3C" stroke-width="2" opacity=".6"/>
    <g transform="translate(-112 -112) scale(7)"><circle cx="16" cy="16" r="13.6" fill="none" stroke="#FFFFFF" stroke-width="2.6"/><path d="M16 4.4v2.4M16 25.2v2.4M4.4 16h2.4M25.2 16h2.4" stroke="#FFFFFF" stroke-width="2" stroke-linecap="round"/><path d="M22.8 9.2 17.95 17.95 14.05 14.05Z" fill="#A3C9AE"/><path d="M9.2 22.8 14.05 14.05 17.95 17.95Z" fill="#9A9C93"/><circle cx="16" cy="16" r="1.6" fill="#133B26"/></g>
  </g>
  <g transform="translate(80 72) scale(2)"><circle cx="16" cy="16" r="13.6" fill="none" stroke="#FFFFFF" stroke-width="2.6"/><path d="M16 4.4v2.4M16 25.2v2.4M4.4 16h2.4M25.2 16h2.4" stroke="#FFFFFF" stroke-width="2" stroke-linecap="round"/><path d="M22.8 9.2 17.95 17.95 14.05 14.05Z" fill="#A3C9AE"/><path d="M9.2 22.8 14.05 14.05 17.95 17.95Z" fill="#9A9C93"/><circle cx="16" cy="16" r="1.6" fill="#133B26"/></g>
  <path fill="#FFFFFF" d="M163.07 112V90.91H166.84V95.46L166.7 94.91Q167.66 92.68 169.52 91.55Q171.39 90.42 173.38 90.42Q173.95 90.42 174.51 90.52Q175.08 90.61 175.59 90.85L175.14 94.46Q174.02 94.11 172.93 94.11Q172.19 94.11 171.18 94.39Q170.18 94.68 169.24 95.48Q168.3 96.28 167.67 97.83Q167.03 99.38 167.03 101.9V112Z M187.87 112.49Q184.84 112.49 182.53 111.08Q180.22 109.68 178.93 107.2Q177.64 104.71 177.64 101.45Q177.64 98.19 178.93 95.71Q180.22 93.23 182.53 91.82Q184.84 90.42 187.87 90.42Q190.9 90.42 193.21 91.82Q195.53 93.23 196.82 95.71Q198.11 98.19 198.11 101.45Q198.11 104.71 196.82 107.2Q195.53 109.68 193.21 111.08Q190.9 112.49 187.87 112.49ZM187.87 109.32Q190.65 109.32 192.25 107.21Q193.85 105.09 193.85 101.45Q193.85 97.8 192.25 95.69Q190.65 93.58 187.87 93.58Q185.1 93.58 183.5 95.69Q181.9 97.8 181.9 101.45Q181.9 105.09 183.5 107.21Q185.1 109.32 187.87 109.32Z M212.85 112.49Q210.7 112.49 208.73 111.43Q206.76 110.38 205.69 107.94L205.9 107.8V112H202.15V82.7H206.11V95.26L205.8 94.95Q206.72 92.64 208.67 91.53Q210.63 90.42 212.87 90.42Q215.47 90.42 217.42 91.77Q219.38 93.11 220.46 95.59Q221.54 98.07 221.54 101.47Q221.54 104.89 220.45 107.36Q219.36 109.83 217.4 111.16Q215.45 112.49 212.85 112.49ZM211.62 109.29Q214.12 109.29 215.69 107.23Q217.25 105.18 217.25 101.39Q217.25 97.7 215.73 95.65Q214.22 93.6 211.66 93.6Q210.12 93.6 208.82 94.43Q207.52 95.26 206.75 96.98Q205.98 98.7 205.98 101.39Q205.98 105.4 207.63 107.34Q209.28 109.29 211.62 109.29Z M234.28 112.49Q231.25 112.49 228.94 111.08Q226.62 109.68 225.33 107.2Q224.05 104.71 224.05 101.45Q224.05 98.19 225.33 95.71Q226.62 93.23 228.94 91.82Q231.25 90.42 234.28 90.42Q237.31 90.42 239.62 91.82Q241.94 93.23 243.22 95.71Q244.51 98.19 244.51 101.45Q244.51 104.71 243.22 107.2Q241.94 109.68 239.62 111.08Q237.31 112.49 234.28 112.49ZM234.28 109.32Q237.05 109.32 238.65 107.21Q240.26 105.09 240.26 101.45Q240.26 97.8 238.65 95.69Q237.05 93.58 234.28 93.58Q231.51 93.58 229.9 95.69Q228.3 97.8 228.3 101.45Q228.3 105.09 229.9 107.21Q231.51 109.32 234.28 109.32Z M253.48 112Q251.92 112 250.9 111.08Q249.89 110.16 249.89 108.66V94.05H246.59V90.91H249.89V86.57L253.85 85.67V90.91H257.95V94.05H253.85V107.78Q253.85 108.43 254.04 108.64Q254.22 108.86 254.83 108.86H258.05V112Z M261.78 112V90.91H265.55V94.46Q266.35 92.76 268.04 91.59Q269.73 90.42 272.05 90.42Q274.18 90.42 275.73 91.55Q277.27 92.68 278.01 94.77Q279.07 92.76 280.8 91.59Q282.54 90.42 284.79 90.42Q287.86 90.42 289.6 92.63Q291.35 94.85 291.35 98.84V112H287.39V98.99Q287.39 97.37 287.05 96.16Q286.72 94.95 285.93 94.28Q285.14 93.6 283.77 93.6Q282.25 93.6 281.07 94.51Q279.89 95.42 279.22 97.1Q278.56 98.78 278.56 101.14V112H274.59V98.99Q274.59 97.37 274.25 96.16Q273.91 94.95 273.14 94.28Q272.37 93.6 271 93.6Q269.48 93.6 268.29 94.5Q267.09 95.4 266.42 97.08Q265.75 98.76 265.75 101.14V112Z M301.88 112.47Q299.79 112.47 298.2 111.69Q296.61 110.91 295.72 109.5Q294.83 108.09 294.83 106.24Q294.83 104.23 296 102.63Q297.17 101.04 299.55 100.12Q301.92 99.19 305.53 99.19H308.91L308.56 99.58V98.41Q308.56 96 307.61 94.73Q306.66 93.46 304.46 93.46Q302.35 93.46 301.23 94.55Q300.1 95.63 300 97.51L295.71 96.61Q295.92 94.91 297.06 93.5Q298.19 92.1 300.13 91.26Q302.07 90.42 304.71 90.42Q307.33 90.42 309.03 91.37Q310.73 92.31 311.56 94.18Q312.39 96.04 312.39 98.82V107.78Q312.39 108.43 312.57 108.64Q312.76 108.86 313.36 108.86H314.5V112H312.21Q310.63 112 309.65 111.08Q308.68 110.16 308.68 108.66V107.31L309.3 107.41Q309.01 108.25 308.45 109.13Q307.9 110.01 307.01 110.77Q306.12 111.53 304.85 112Q303.58 112.47 301.88 112.47ZM302.88 109.4Q304.42 109.4 305.72 108.65Q307.02 107.9 307.8 106.32Q308.58 104.73 308.58 102.23V101.98H305.51Q303.05 101.98 301.65 102.62Q300.24 103.27 299.66 104.22Q299.09 105.16 299.09 106.08Q299.09 106.98 299.49 107.73Q299.89 108.48 300.73 108.94Q301.57 109.4 302.88 109.4Z M323.62 112.47Q321.53 112.47 319.94 111.69Q318.35 110.91 317.46 109.5Q316.57 108.09 316.57 106.24Q316.57 104.23 317.74 102.63Q318.91 101.04 321.28 100.12Q323.66 99.19 327.27 99.19H330.65L330.3 99.58V98.41Q330.3 96 329.35 94.73Q328.4 93.46 326.2 93.46Q324.09 93.46 322.96 94.55Q321.84 95.63 321.74 97.51L317.45 96.61Q317.66 94.91 318.79 93.5Q319.93 92.1 321.87 91.26Q323.81 90.42 326.45 90.42Q329.07 90.42 330.77 91.37Q332.47 92.31 333.3 94.18Q334.13 96.04 334.13 98.82V107.78Q334.13 108.43 334.31 108.64Q334.5 108.86 335.1 108.86H336.24V112H333.95Q332.37 112 331.39 111.08Q330.42 110.16 330.42 108.66V107.31L331.04 107.41Q330.75 108.25 330.19 109.13Q329.63 110.01 328.75 110.77Q327.86 111.53 326.59 112Q325.32 112.47 323.62 112.47ZM324.61 109.4Q326.16 109.4 327.46 108.65Q328.76 107.9 329.54 106.32Q330.32 104.73 330.32 102.23V101.98H327.25Q324.79 101.98 323.38 102.62Q321.98 103.27 321.4 104.22Q320.83 105.16 320.83 106.08Q320.83 106.98 321.23 107.73Q321.63 108.48 322.47 108.94Q323.31 109.4 324.61 109.4Z M339.81 112V90.91H343.78V112ZM341.8 87.64Q340.49 87.64 339.63 86.78Q338.76 85.91 338.76 84.62Q338.76 83.29 339.63 82.43Q340.49 81.57 341.8 81.57Q343.11 81.57 343.98 82.43Q344.85 83.29 344.85 84.62Q344.85 85.91 343.98 86.78Q343.11 87.64 341.8 87.64Z M357.98 112.49Q354.93 112.49 352.66 111.13Q350.4 109.77 349.14 107.3Q347.88 104.83 347.88 101.45Q347.88 98.07 349.13 95.6Q350.38 93.13 352.62 91.78Q354.87 90.42 357.86 90.42Q359.56 90.42 361.28 90.96Q363 91.49 364.42 92.82Q365.85 94.15 366.71 96.46Q367.57 98.78 367.57 102.33H350.44V99.5H364.09L363.23 100.67Q363.13 98.09 362.38 96.52Q361.63 94.95 360.43 94.24Q359.23 93.52 357.78 93.52Q356 93.52 354.74 94.47Q353.48 95.42 352.82 97.2Q352.16 98.97 352.16 101.49Q352.16 105.2 353.65 107.26Q355.14 109.32 357.96 109.32Q359.95 109.32 361.32 108.32Q362.68 107.31 363.35 105.38L367.12 106.53Q366.35 108.46 365.03 109.79Q363.7 111.12 361.9 111.8Q360.1 112.49 357.98 112.49Z M371.51 112V90.91H375.28V95.46L375.14 94.91Q376.1 92.68 377.97 91.55Q379.83 90.42 381.82 90.42Q382.39 90.42 382.96 90.52Q383.52 90.61 384.03 90.85L383.58 94.46Q382.47 94.11 381.37 94.11Q380.63 94.11 379.63 94.39Q378.62 94.68 377.68 95.48Q376.75 96.28 376.11 97.83Q375.48 99.38 375.48 101.9V112Z"/><path fill="#A3C9AE" d="M387.4 112V82.7H394.26V98.5L401.68 90.91H409.22L401.58 98.76L409.55 112H402.01L397.05 103.5L394.26 106.39V112Z M421.52 112.53Q418.24 112.53 415.74 111.12Q413.24 109.71 411.85 107.21Q410.45 104.71 410.45 101.45Q410.45 98.17 411.85 95.68Q413.24 93.19 415.74 91.79Q418.24 90.38 421.52 90.38Q424.81 90.38 427.31 91.79Q429.81 93.19 431.21 95.68Q432.62 98.17 432.62 101.45Q432.62 104.73 431.21 107.22Q429.81 109.71 427.3 111.12Q424.79 112.53 421.52 112.53ZM421.54 107.62Q423.38 107.62 424.45 105.96Q425.53 104.3 425.53 101.45Q425.53 98.6 424.45 96.94Q423.38 95.28 421.52 95.28Q419.69 95.28 418.61 96.94Q417.54 98.6 417.54 101.45Q417.54 104.3 418.61 105.96Q419.69 107.62 421.54 107.62Z M435.65 112V90.91H442.31V94.21Q443.3 92.29 444.89 91.34Q446.49 90.38 448.62 90.38Q450.86 90.38 452.37 91.44Q453.87 92.51 454.59 94.58Q455.86 92.29 457.67 91.34Q459.47 90.38 461.41 90.38Q464.67 90.38 466.35 92.66Q468.03 94.95 468.03 99.3V112H461.19V99.11Q461.19 98.15 461 97.32Q460.8 96.49 460.3 95.96Q459.79 95.44 458.79 95.44Q457.56 95.44 456.78 96.31Q456 97.18 455.63 98.63Q455.26 100.09 455.26 101.86V112H448.42V99.11Q448.42 98.15 448.23 97.31Q448.05 96.47 447.53 95.96Q447.01 95.44 446.02 95.44Q444.79 95.44 444.01 96.3Q443.22 97.16 442.86 98.61Q442.5 100.07 442.5 101.88V112Z M472.01 119.62V90.91H478.52V95.07L478.46 94.77Q479.65 92.45 481.4 91.41Q483.15 90.38 485.43 90.38Q488.13 90.38 490.07 91.69Q492.01 93 493.05 95.49Q494.09 97.98 494.09 101.51Q494.09 105.01 493.04 107.48Q492 109.95 490.02 111.24Q488.05 112.53 485.3 112.53Q482.85 112.53 481.12 111.42Q479.38 110.32 478.21 107.9H478.85V119.62ZM482.76 107.45Q484.67 107.45 485.77 105.82Q486.88 104.19 486.88 101.36Q486.88 98.56 485.8 97Q484.73 95.44 482.8 95.44Q481.57 95.44 480.6 96.11Q479.63 96.79 479.08 98.11Q478.52 99.44 478.52 101.43Q478.52 104.38 479.73 105.92Q480.94 107.45 482.76 107.45Z M503.19 112.51Q501.21 112.51 499.45 111.84Q497.68 111.18 496.59 109.77Q495.49 108.37 495.49 106.12Q495.49 103.7 496.89 102.13Q498.29 100.55 500.83 99.77Q503.38 98.99 506.9 98.99H509.63L509.28 99.62V98.37Q509.28 96.45 508.63 95.57Q507.97 94.7 506.47 94.7Q505 94.7 504.24 95.48Q503.48 96.26 503.25 97.76L496.41 96.65Q496.8 94.87 498 93.45Q499.2 92.02 501.38 91.18Q503.56 90.34 506.84 90.34Q509.73 90.34 511.79 91.2Q513.85 92.06 514.96 94.13Q516.06 96.2 516.06 99.85V106.02Q516.06 106.69 516.24 106.9Q516.43 107.12 517.04 107.12H517.89V112H514.85Q512.19 112 510.88 110.72Q509.57 109.44 509.57 106.96V106.18L510.82 106.71Q510.59 107.57 510.13 108.56Q509.67 109.56 508.83 110.46Q507.99 111.36 506.62 111.93Q505.24 112.51 503.19 112.51ZM505.24 108.05Q506.51 108.05 507.43 107.49Q508.34 106.92 508.85 105.85Q509.36 104.77 509.36 103.25V102.68H507.23Q505.36 102.68 504.32 103.17Q503.29 103.66 502.88 104.36Q502.48 105.07 502.48 105.71Q502.48 106.14 502.7 106.69Q502.91 107.23 503.5 107.64Q504.09 108.05 505.24 108.05Z M529.44 112.53Q527.02 112.53 524.8 111.86Q522.58 111.2 521.06 109.75Q519.54 108.31 519.15 105.96L525.22 104.75Q525.38 106.26 526.31 107.04Q527.25 107.82 529.15 107.82Q530.96 107.82 531.76 107.2Q532.56 106.57 532.56 105.75Q532.56 105.03 531.9 104.41Q531.24 103.8 529.46 103.54L527.78 103.31Q526.63 103.15 525.28 102.86Q523.93 102.57 522.72 101.95Q521.51 101.34 520.75 100.22Q519.99 99.11 519.99 97.31Q519.99 95.2 521.12 93.65Q522.25 92.1 524.32 91.24Q526.39 90.38 529.16 90.38Q531.57 90.38 533.63 91.06Q535.69 91.75 537.1 93.1Q538.52 94.46 538.93 96.49L532.93 97.72Q532.8 97.08 532.47 96.44Q532.13 95.81 531.42 95.39Q530.71 94.97 529.44 94.97Q528.07 94.97 527.35 95.49Q526.63 96 526.63 96.8Q526.63 97.49 527.15 97.91Q527.68 98.33 528.54 98.57Q529.4 98.82 530.4 98.97L532.43 99.27Q534.11 99.5 535.67 100.18Q537.23 100.87 538.24 102.16Q539.24 103.45 539.24 105.54Q539.24 107.84 537.95 109.4Q536.66 110.96 534.44 111.75Q532.21 112.53 529.44 112.53Z"/>
  <path fill="#FFFFFF" d="M93.54 300 81.41 246.56H93.66L102.12 293.43H100.89L111.32 246.56H125.38L135.78 293.43H134.55L143.01 246.56H155.22L143.09 300H127.31L117.78 255.84H118.85L109.35 300Z M178.6 300.96Q172.7 300.96 168.01 298.4Q163.31 295.84 160.58 291.11Q157.86 286.38 157.86 279.92Q157.86 273.5 160.55 268.79Q163.24 264.08 167.9 261.52Q172.55 258.96 178.53 258.96Q181.83 258.96 185.23 259.96Q188.62 260.96 191.48 263.5Q194.34 266.04 196.08 270.59Q197.82 275.14 197.82 282.19H164.94V275.88H187.95L186.8 277.85Q186.51 273.84 185.32 271.39Q184.13 268.94 182.31 267.83Q180.49 266.71 178.23 266.71Q175.3 266.71 173.33 268.38Q171.36 270.05 170.38 273.04Q169.4 276.03 169.4 279.96Q169.4 285.9 171.64 289.35Q173.89 292.8 178.53 292.8Q181.53 292.8 183.7 291.24Q185.87 289.68 187.02 286.49L197.04 289.05Q195.63 293.21 192.78 295.84Q189.92 298.48 186.23 299.72Q182.53 300.96 178.6 300.96Z M213.23 300Q208.77 300 206.38 297.83Q203.99 295.66 203.99 291.58V244.34H215.04V289.83Q215.04 291.06 215.4 291.48Q215.75 291.91 216.9 291.91H219.98V300Z M225.32 300V244.34H236.38V275.36L251.86 259.92H264.48L249.41 274.91L265.07 300H252.71L241.99 282.56L236.38 288.12V300Z M288.19 300.96Q282.29 300.96 277.59 298.4Q272.9 295.84 270.17 291.11Q267.45 286.38 267.45 279.92Q267.45 273.5 270.14 268.79Q272.83 264.08 277.48 261.52Q282.14 258.96 288.12 258.96Q291.42 258.96 294.81 259.96Q298.21 260.96 301.07 263.5Q303.92 266.04 305.67 270.59Q307.41 275.14 307.41 282.19H274.53V275.88H297.54L296.39 277.85Q296.09 273.84 294.91 271.39Q293.72 268.94 291.9 267.83Q290.08 266.71 287.82 266.71Q284.89 266.71 282.92 268.38Q280.95 270.05 279.97 273.04Q278.99 276.03 278.99 279.96Q278.99 285.9 281.23 289.35Q283.48 292.8 288.12 292.8Q291.12 292.8 293.29 291.24Q295.46 289.68 296.61 286.49L306.63 289.05Q305.22 293.21 302.37 295.84Q299.51 298.48 295.82 299.72Q292.12 300.96 288.19 300.96Z  M328.2 300V259.92H338.88V268.94L338.44 267.75Q340.33 263.3 343.78 261.13Q347.23 258.96 351.32 258.96Q352.47 258.96 353.65 259.14Q354.84 259.33 356.03 259.77L355.17 269.2Q352.76 268.53 350.54 268.53Q348.72 268.53 346.73 269.16Q344.75 269.79 343.06 271.37Q341.37 272.95 340.31 275.82Q339.26 278.7 339.26 283.15V300Z M379.45 300.96Q373.4 300.96 368.78 298.29Q364.16 295.62 361.56 290.89Q358.96 286.16 358.96 279.96Q358.96 273.73 361.56 269Q364.16 264.26 368.78 261.61Q373.4 258.96 379.45 258.96Q385.53 258.96 390.15 261.61Q394.77 264.26 397.37 269Q399.97 273.73 399.97 279.96Q399.97 286.2 397.37 290.93Q394.77 295.66 390.13 298.31Q385.49 300.96 379.45 300.96ZM379.48 292.84Q383.6 292.84 386 289.37Q388.39 285.9 388.39 279.96Q388.39 273.99 386 270.54Q383.6 267.08 379.45 267.08Q375.33 267.08 372.93 270.54Q370.54 273.99 370.54 279.96Q370.54 285.94 372.93 289.39Q375.33 292.84 379.48 292.84Z M429.88 300.96Q425.43 300.96 421.96 298.91Q418.49 296.85 416.33 292.21L416.89 292.13V300H406.43V244.34H417.48V267.97L416.74 267.38Q418.82 263 422.29 260.98Q425.76 258.96 430.06 258.96Q435.11 258.96 438.8 261.46Q442.5 263.97 444.5 268.7Q446.5 273.43 446.5 280.04Q446.5 286.64 444.48 291.33Q442.46 296.03 438.73 298.5Q435 300.96 429.88 300.96ZM425.95 292.62Q429.99 292.62 432.4 289.22Q434.81 285.82 434.81 279.81Q434.81 273.88 432.46 270.59Q430.1 267.31 426.02 267.31Q423.46 267.31 421.4 268.68Q419.34 270.05 418.13 272.85Q416.93 275.66 416.93 279.89Q416.93 286.23 419.53 289.42Q422.12 292.62 425.95 292.62Z M470.55 300.96Q464.5 300.96 459.88 298.29Q455.26 295.62 452.67 290.89Q450.07 286.16 450.07 279.96Q450.07 273.73 452.67 269Q455.26 264.26 459.88 261.61Q464.5 258.96 470.55 258.96Q476.64 258.96 481.26 261.61Q485.88 264.26 488.48 269Q491.07 273.73 491.07 279.96Q491.07 286.2 488.48 290.93Q485.88 295.66 481.24 298.31Q476.6 300.96 470.55 300.96ZM470.59 292.84Q474.71 292.84 477.1 289.37Q479.5 285.9 479.5 279.96Q479.5 273.99 477.1 270.54Q474.71 267.08 470.55 267.08Q466.43 267.08 464.04 270.54Q461.65 273.99 461.65 279.96Q461.65 285.94 464.04 289.39Q466.43 292.84 470.59 292.84Z M508.89 300Q504.43 300 502.04 297.83Q499.65 295.66 499.65 291.58V268.01H493.93V259.92H499.65V252.05L510.71 249.38V259.92H518.13V268.01H510.71V289.83Q510.71 291.06 511.06 291.48Q511.41 291.91 512.56 291.91H518.68V300Z M524.85 300V259.92H535.53V266.38Q537.32 262.89 540.41 260.92Q543.51 258.96 547.67 258.96Q551.82 258.96 554.72 261.02Q557.61 263.08 559.02 267.05Q561.25 262.89 564.65 260.92Q568.04 258.96 571.9 258.96Q577.99 258.96 581.23 263.24Q584.48 267.53 584.48 275.54V300H573.42V275.43Q573.42 273.17 572.96 271.33Q572.49 269.5 571.34 268.4Q570.19 267.31 568.04 267.31Q565.48 267.31 563.74 268.98Q561.99 270.65 561.08 273.56Q560.17 276.47 560.17 280.26V300H549.12V275.43Q549.12 273.17 548.67 271.31Q548.23 269.46 547.06 268.38Q545.89 267.31 543.77 267.31Q541.25 267.31 539.49 268.96Q537.72 270.61 536.81 273.52Q535.91 276.44 535.91 280.29V300Z M604.08 300.96Q600.25 300.96 597.03 299.61Q593.8 298.26 591.85 295.58Q589.9 292.91 589.9 288.9Q589.9 284.6 592.39 281.59Q594.87 278.59 599.62 277.01Q604.37 275.43 611.09 275.43H616.73L616.06 276.44V274.13Q616.06 270.16 614.62 268.22Q613.17 266.27 609.83 266.27Q606.64 266.27 604.95 267.96Q603.26 269.64 602.89 272.76L591.61 270.83Q592.24 267.49 594.48 264.8Q596.73 262.11 600.7 260.52Q604.67 258.92 610.46 258.92Q615.77 258.92 619.44 260.61Q623.11 262.3 625.02 266.08Q626.94 269.87 626.94 276.21V289.83Q626.94 291.09 627.29 291.5Q627.64 291.91 628.79 291.91H630.61V300H625.34Q621 300 618.75 297.83Q616.51 295.66 616.51 291.58V289.68L618.44 290.43Q617.96 292.02 617.03 293.84Q616.1 295.66 614.45 297.27Q612.8 298.89 610.27 299.93Q607.75 300.96 604.08 300.96ZM607.27 293.39Q609.87 293.39 611.87 292.21Q613.87 291.02 615.02 288.63Q616.17 286.23 616.17 282.67V281.82H611.5Q607.53 281.82 605.32 282.86Q603.11 283.89 602.22 285.4Q601.33 286.9 601.33 288.31Q601.33 289.42 601.87 290.61Q602.41 291.8 603.69 292.6Q604.97 293.39 607.27 293.39Z M647.87 300.96Q644.04 300.96 640.82 299.61Q637.59 298.26 635.64 295.58Q633.69 292.91 633.69 288.9Q633.69 284.6 636.18 281.59Q638.66 278.59 643.41 277.01Q648.16 275.43 654.88 275.43H660.52L659.85 276.44V274.13Q659.85 270.16 658.41 268.22Q656.96 266.27 653.62 266.27Q650.43 266.27 648.74 267.96Q647.05 269.64 646.68 272.76L635.4 270.83Q636.03 267.49 638.27 264.8Q640.52 262.11 644.49 260.52Q648.46 258.92 654.25 258.92Q659.56 258.92 663.23 260.61Q666.9 262.3 668.82 266.08Q670.73 269.87 670.73 276.21V289.83Q670.73 291.09 671.08 291.5Q671.43 291.91 672.58 291.91H674.4V300H669.13Q664.79 300 662.54 297.83Q660.3 295.66 660.3 291.58V289.68L662.23 290.43Q661.75 292.02 660.82 293.84Q659.89 295.66 658.24 297.27Q656.59 298.89 654.06 299.93Q651.54 300.96 647.87 300.96ZM651.06 293.39Q653.66 293.39 655.66 292.21Q657.66 291.02 658.81 288.63Q659.96 286.23 659.96 282.67V281.82H655.29Q651.32 281.82 649.11 282.86Q646.9 283.89 646.01 285.4Q645.12 286.9 645.12 288.31Q645.12 289.42 645.66 290.61Q646.2 291.8 647.48 292.6Q648.76 293.39 651.06 293.39Z M680.34 300V259.92H691.4V300ZM685.87 255.13Q682.57 255.13 680.56 253.13Q678.56 251.13 678.56 247.82Q678.56 244.48 680.56 242.5Q682.57 240.51 685.87 240.51Q689.21 240.51 691.19 242.5Q693.18 244.48 693.18 247.82Q693.18 251.13 691.19 253.13Q689.21 255.13 685.87 255.13Z M718.64 300.96Q712.74 300.96 708.04 298.4Q703.35 295.84 700.62 291.11Q697.89 286.38 697.89 279.92Q697.89 273.5 700.58 268.79Q703.27 264.08 707.93 261.52Q712.59 258.96 718.56 258.96Q721.87 258.96 725.26 259.96Q728.66 260.96 731.51 263.5Q734.37 266.04 736.12 270.59Q737.86 275.14 737.86 282.19H704.98V275.88H727.99L726.84 277.85Q726.54 273.84 725.35 271.39Q724.17 268.94 722.35 267.83Q720.53 266.71 718.27 266.71Q715.33 266.71 713.37 268.38Q711.4 270.05 710.42 273.04Q709.43 276.03 709.43 279.96Q709.43 285.9 711.68 289.35Q713.92 292.8 718.56 292.8Q721.57 292.8 723.74 291.24Q725.91 289.68 727.06 286.49L737.08 289.05Q735.67 293.21 732.81 295.84Q729.96 298.48 726.26 299.72Q722.57 300.96 718.64 300.96Z M744.21 300V259.92H754.89V268.94L754.45 267.75Q756.34 263.3 759.79 261.13Q763.24 258.96 767.33 258.96Q768.48 258.96 769.66 259.14Q770.85 259.33 772.04 259.77L771.19 269.2Q768.77 268.53 766.55 268.53Q764.73 268.53 762.74 269.16Q760.76 269.79 759.07 271.37Q757.38 272.95 756.32 275.82Q755.27 278.7 755.27 283.15V300Z"/><path fill="#FFFFFF" d="M85.23 402.47V347.92H95.7V355.97L95.59 355.38Q97.66 351 101.13 348.98Q104.6 346.96 108.91 346.96Q113.96 346.96 117.65 349.46Q121.34 351.97 123.34 356.7Q125.35 361.43 125.35 368.04Q125.35 374.64 123.33 379.33Q121.3 384.03 117.57 386.5Q113.84 388.96 108.72 388.96Q104.27 388.96 100.8 386.91Q97.33 384.85 95.18 380.21L96.22 380.13V402.47ZM104.79 380.62Q108.83 380.62 111.25 377.22Q113.66 373.82 113.66 367.81Q113.66 361.88 111.3 358.59Q108.95 355.31 104.86 355.31Q102.3 355.31 100.24 356.68Q98.18 358.05 96.98 360.85Q95.77 363.66 95.77 367.89Q95.77 374.23 98.37 377.42Q100.97 380.62 104.79 380.62Z M142.83 388.96Q139.01 388.96 135.78 387.61Q132.55 386.26 130.6 383.58Q128.65 380.91 128.65 376.9Q128.65 372.6 131.14 369.59Q133.62 366.59 138.37 365.01Q143.12 363.43 149.84 363.43H155.48L154.81 364.44V362.13Q154.81 358.16 153.37 356.22Q151.92 354.27 148.58 354.27Q145.39 354.27 143.7 355.96Q142.01 357.64 141.64 360.76L130.36 358.83Q130.99 355.49 133.23 352.8Q135.48 350.11 139.45 348.52Q143.42 346.92 149.21 346.92Q154.52 346.92 158.19 348.61Q161.86 350.3 163.78 354.08Q165.69 357.87 165.69 364.21V377.83Q165.69 379.09 166.04 379.5Q166.39 379.91 167.54 379.91H169.36V388H164.09Q159.75 388 157.5 385.83Q155.26 383.66 155.26 379.58V377.68L157.19 378.43Q156.71 380.02 155.78 381.84Q154.85 383.66 153.2 385.27Q151.55 386.89 149.02 387.93Q146.5 388.96 142.83 388.96ZM146.02 381.39Q148.62 381.39 150.62 380.21Q152.62 379.02 153.77 376.63Q154.93 374.23 154.93 370.67V369.82H150.25Q146.28 369.82 144.07 370.86Q141.86 371.89 140.97 373.4Q140.08 374.9 140.08 376.31Q140.08 377.42 140.62 378.61Q141.16 379.8 142.44 380.6Q143.72 381.39 146.02 381.39Z M190.96 388.96Q186.43 388.96 182.42 387.65Q178.42 386.33 175.67 383.55Q172.92 380.76 172.18 376.31L182.28 374.31Q182.61 377.68 184.67 379.41Q186.73 381.13 190.55 381.13Q194.23 381.13 196.01 379.67Q197.79 378.2 197.79 376.24Q197.79 374.49 196.4 373.23Q195 371.97 191.59 371.45L187.95 370.86Q185.8 370.52 183.37 369.95Q180.94 369.37 178.79 368.2Q176.64 367.03 175.26 364.96Q173.89 362.88 173.89 359.61Q173.89 355.64 176.02 352.8Q178.16 349.96 181.94 348.46Q185.73 346.96 190.59 346.96Q195.08 346.96 198.79 348.27Q202.5 349.59 205.01 352.13Q207.51 354.68 208.25 358.42L198.16 360.5Q197.9 358.98 197.18 357.64Q196.45 356.31 194.97 355.47Q193.48 354.64 190.96 354.64Q188.1 354.64 186.41 355.75Q184.73 356.87 184.73 358.79Q184.73 360.21 185.67 361.1Q186.62 361.99 188.27 362.52Q189.92 363.06 192 363.43L196.16 364.14Q199.35 364.66 202.22 365.94Q205.1 367.22 206.92 369.59Q208.74 371.97 208.74 375.83Q208.74 380.1 206.42 383.03Q204.1 385.96 200.07 387.46Q196.04 388.96 190.96 388.96Z M226.51 388Q222.06 388 219.67 385.83Q217.27 383.66 217.27 379.58V356.01H211.56V347.92H217.27V340.05L228.33 337.38V347.92H235.75V356.01H228.33V377.83Q228.33 379.06 228.68 379.48Q229.04 379.91 230.19 379.91H236.31V388Z  M280.4 388.96Q275.94 388.96 272.48 386.91Q269.01 384.85 266.85 380.21L267.41 380.13V388H256.94V332.34H268V355.97L267.26 355.38Q269.34 351 272.81 348.98Q276.28 346.96 280.58 346.96Q285.63 346.96 289.32 349.46Q293.02 351.97 295.02 356.7Q297.02 361.43 297.02 368.04Q297.02 374.64 295 379.33Q292.98 384.03 289.25 386.5Q285.52 388.96 280.4 388.96ZM276.46 380.62Q280.51 380.62 282.92 377.22Q285.33 373.82 285.33 367.81Q285.33 361.88 282.98 358.59Q280.62 355.31 276.54 355.31Q273.98 355.31 271.92 356.68Q269.86 358.05 268.65 360.85Q267.45 363.66 267.45 367.89Q267.45 374.23 270.04 377.42Q272.64 380.62 276.46 380.62Z M303.15 388V347.92H314.21V388ZM308.68 343.13Q305.37 343.13 303.37 341.13Q301.37 339.13 301.37 335.82Q301.37 332.48 303.37 330.5Q305.37 328.51 308.68 328.51Q312.02 328.51 314 330.5Q315.99 332.48 315.99 335.82Q315.99 339.13 314 341.13Q312.02 343.13 308.68 343.13Z M319.44 402.47V394.38H323Q324.19 394.38 324.52 393.96Q324.86 393.53 324.86 392.3V347.92H335.92V394.05Q335.92 398.13 333.52 400.3Q331.13 402.47 326.68 402.47ZM330.46 343.13Q327.16 343.13 325.15 341.13Q323.15 339.13 323.15 335.82Q323.15 332.48 325.15 330.5Q327.16 328.51 330.46 328.51Q333.8 328.51 335.79 330.5Q337.77 332.48 337.77 335.82Q337.77 339.13 335.79 341.13Q333.8 343.13 330.46 343.13Z  M355.36 402.47V394.38H358.93Q360.11 394.38 360.45 393.96Q360.78 393.53 360.78 392.3V347.92H371.84V394.05Q371.84 398.13 369.45 400.3Q367.05 402.47 362.6 402.47ZM366.39 343.13Q363.08 343.13 361.08 341.13Q359.08 339.13 359.08 335.82Q359.08 332.48 361.08 330.5Q363.08 328.51 366.39 328.51Q369.73 328.51 371.71 330.5Q373.7 332.48 373.7 335.82Q373.7 339.13 371.71 341.13Q369.73 343.13 366.39 343.13Z M398.56 388.96Q392.51 388.96 387.89 386.29Q383.27 383.62 380.68 378.89Q378.08 374.16 378.08 367.96Q378.08 361.73 380.68 357Q383.27 352.26 387.89 349.61Q392.51 346.96 398.56 346.96Q404.65 346.96 409.27 349.61Q413.89 352.26 416.49 357Q419.08 361.73 419.08 367.96Q419.08 374.2 416.49 378.93Q413.89 383.66 409.25 386.31Q404.61 388.96 398.56 388.96ZM398.6 380.84Q402.72 380.84 405.11 377.37Q407.51 373.9 407.51 367.96Q407.51 361.99 405.11 358.54Q402.72 355.08 398.56 355.08Q394.44 355.08 392.05 358.54Q389.66 361.99 389.66 367.96Q389.66 373.94 392.05 377.39Q394.44 380.84 398.6 380.84Z M438.27 388.96Q433.63 388.96 430.64 386.85Q427.66 384.73 426.21 380.99Q424.76 377.24 424.76 372.34V347.92H435.82V371.04Q435.82 375.9 437.49 378.26Q439.16 380.62 442.69 380.62Q444.76 380.62 446.64 379.52Q448.51 378.43 449.7 375.87Q450.89 373.3 450.89 368.89V347.92H461.95V388H451.26V378.61L451.52 380.24Q449.74 384.33 446.38 386.65Q443.02 388.96 438.27 388.96Z M477.09 388 467.33 347.92H478.8L485.29 381.39H484.36L492.08 347.92H506.78L514.46 381.51H513.34L520.02 347.92H530.9L521.1 388H505.74L498.2 352.15H500.13L492.45 388Z  M562.11 388Q557.66 388 555.26 385.83Q552.87 383.66 552.87 379.58V356.01H547.15V347.92H552.87V340.05L563.93 337.38V347.92H571.35V356.01H563.93V377.83Q563.93 379.06 564.28 379.48Q564.63 379.91 565.78 379.91H571.91V388Z M590.83 388.96Q586.19 388.96 583.21 386.85Q580.22 384.73 578.77 380.99Q577.33 377.24 577.33 372.34V347.92H588.38V371.04Q588.38 375.9 590.05 378.26Q591.72 380.62 595.25 380.62Q597.33 380.62 599.2 379.52Q601.08 378.43 602.26 375.87Q603.45 373.3 603.45 368.89V347.92H614.51V388H603.82V378.61L604.08 380.24Q602.3 384.33 598.94 386.65Q595.58 388.96 590.83 388.96Z M623.49 388V347.92H634.55V388ZM629.02 343.13Q625.72 343.13 623.71 341.13Q621.71 339.13 621.71 335.82Q621.71 332.48 623.71 330.5Q625.72 328.51 629.02 328.51Q632.36 328.51 634.35 330.5Q636.33 332.48 636.33 335.82Q636.33 339.13 634.35 341.13Q632.36 343.13 629.02 343.13Z M643.53 388V347.92H654.22V357.16L653.96 355.49Q655.78 351.52 659.12 349.24Q662.46 346.96 667.17 346.96Q671.85 346.96 674.83 349.07Q677.82 351.19 679.27 354.94Q680.71 358.68 680.71 363.58V388H669.66V364.29Q669.66 360.02 668.25 357.66Q666.84 355.31 663.35 355.31Q659.23 355.31 656.91 358.83Q654.59 362.36 654.59 369.63V388Z M700.98 370.48 700.9 367.81Q700.87 364.88 701.72 363.1Q702.57 361.32 703.95 360.21Q705.32 359.09 706.88 358.26Q708.44 357.42 709.83 356.46Q711.22 355.49 712.09 353.99Q712.96 352.49 712.96 350Q712.96 346.1 710.72 344.38Q708.47 342.65 705.13 342.65Q701.83 342.65 699.99 344.08Q698.16 345.51 697.38 347.81Q696.6 350.11 696.41 352.67L684.87 349.48Q685.24 346.4 686.93 343.54Q688.62 340.69 691.37 338.44Q694.11 336.2 697.64 334.9Q701.16 333.6 705.32 333.6Q708.73 333.6 712.18 334.58Q715.64 335.56 718.49 337.55Q721.35 339.54 723.1 342.54Q724.84 345.55 724.84 349.59Q724.84 353.45 723.34 355.84Q721.83 358.24 719.57 359.69Q717.31 361.13 715.02 362.21Q712.74 363.29 711.15 364.51Q709.55 365.73 709.36 367.78L709.18 370.48Q707.25 370 705.12 370.02Q702.98 370.04 700.98 370.48ZM705.1 388.96Q701.68 388.96 699.57 386.87Q697.45 384.77 697.45 381.32Q697.45 377.91 699.57 375.81Q701.68 373.71 705.1 373.71Q708.51 373.71 710.63 375.81Q712.74 377.91 712.74 381.32Q712.74 384.77 710.63 386.87Q708.51 388.96 705.1 388.96Z"/>
  <path fill="#E2EEE5" d="M87.17 466 80.3 445.96H83.39L88.82 462.7L94.28 445.96H97.37L90.47 466Z M106.1 466.36Q103.76 466.36 102.14 465.33Q100.52 464.29 99.66 462.53Q98.81 460.78 98.81 458.59Q98.81 456.22 99.77 454.5Q100.73 452.77 102.37 451.82Q104 450.88 106.04 450.88Q107.81 450.88 109.16 451.59Q110.51 452.29 111.4 453.48Q112.28 454.66 112.69 456.16Q113.09 457.66 112.97 459.25H101.51Q101.57 461.11 102.34 462.19Q103.1 463.27 104.15 463.7Q105.2 464.14 106.1 464.14Q107.36 464.14 108.22 463.74Q109.07 463.33 109.58 462.67L112.01 463.39Q111.2 464.68 109.7 465.52Q108.2 466.36 106.1 466.36ZM101.54 457.24H110.3Q110.3 456.19 109.78 455.23Q109.25 454.27 108.31 453.65Q107.36 453.04 106.04 453.04Q104.93 453.04 103.94 453.46Q102.95 453.88 102.31 454.81Q101.66 455.74 101.54 457.24Z M115.94 466V451.12H117.77L118.58 453.88Q119.36 452.53 120.69 451.7Q122.03 450.88 123.89 450.88V453.49Q123.68 453.49 123.46 453.49Q123.23 453.49 123.02 453.52Q120.47 453.73 119.47 455.29Q118.46 456.85 118.46 459.61V466Z M132.26 471.76Q131.06 471.76 129.88 471.41Q128.69 471.07 127.78 470.29Q126.86 469.51 126.47 468.28L128.99 467.59Q129.41 468.76 130.37 469.15Q131.33 469.54 132.26 469.54Q134.57 469.54 135.39 468.43Q136.22 467.32 136.22 465.16V463.18Q135.53 464.35 134.39 465.04Q133.25 465.73 131.48 465.73Q129.83 465.73 128.39 464.88Q126.95 464.02 126.06 462.36Q125.18 460.69 125.18 458.32Q125.18 455.92 126.06 454.27Q126.95 452.62 128.39 451.75Q129.83 450.88 131.48 450.88Q133.25 450.88 134.39 451.59Q135.53 452.29 136.22 453.46L136.91 451.12H138.74V464.59Q138.74 468.13 137.31 469.94Q135.89 471.76 132.26 471.76ZM132.11 463.63Q133.25 463.63 134.19 463.09Q135.14 462.55 135.73 461.38Q136.31 460.21 136.31 458.32Q136.31 456.43 135.73 455.26Q135.14 454.09 134.19 453.56Q133.25 453.04 132.11 453.04Q130.28 453.04 129.09 454.4Q127.91 455.77 127.91 458.32Q127.91 460.87 129.09 462.25Q130.28 463.63 132.11 463.63Z M149.27 466.36Q146.93 466.36 145.31 465.33Q143.69 464.29 142.83 462.53Q141.98 460.78 141.98 458.59Q141.98 456.22 142.94 454.5Q143.9 452.77 145.54 451.82Q147.17 450.88 149.21 450.88Q150.98 450.88 152.33 451.59Q153.68 452.29 154.56 453.48Q155.45 454.66 155.85 456.16Q156.26 457.66 156.14 459.25H144.68Q144.74 461.11 145.5 462.19Q146.27 463.27 147.32 463.7Q148.37 464.14 149.27 464.14Q150.53 464.14 151.38 463.74Q152.24 463.33 152.75 462.67L155.18 463.39Q154.37 464.68 152.87 465.52Q151.37 466.36 149.27 466.36ZM144.71 457.24H153.47Q153.47 456.19 152.94 455.23Q152.42 454.27 151.48 453.65Q150.53 453.04 149.21 453.04Q148.1 453.04 147.11 453.46Q146.12 453.88 145.48 454.81Q144.83 455.74 144.71 457.24Z M162.62 466Q161.21 466 160.44 465.72Q159.68 465.43 159.39 464.62Q159.11 463.81 159.11 462.28V445.99H161.63V461.86Q161.63 463 161.87 463.39Q162.11 463.78 163.16 463.78H163.73V466Z M172.61 466.36Q170.27 466.36 168.65 465.33Q167.03 464.29 166.17 462.53Q165.32 460.78 165.32 458.59Q165.32 456.22 166.28 454.5Q167.24 452.77 168.88 451.82Q170.51 450.88 172.55 450.88Q174.32 450.88 175.67 451.59Q177.02 452.29 177.9 453.48Q178.79 454.66 179.19 456.16Q179.6 457.66 179.48 459.25H168.02Q168.08 461.11 168.84 462.19Q169.61 463.27 170.66 463.7Q171.71 464.14 172.61 464.14Q173.87 464.14 174.72 463.74Q175.58 463.33 176.09 462.67L178.52 463.39Q177.71 464.68 176.21 465.52Q174.71 466.36 172.61 466.36ZM168.05 457.24H176.81Q176.81 456.19 176.28 455.23Q175.76 454.27 174.81 453.65Q173.87 453.04 172.55 453.04Q171.44 453.04 170.45 453.46Q169.46 453.88 168.81 454.81Q168.17 455.74 168.05 457.24Z M182.45 466V445.96H184.97V457.81L190.97 451.12H194L188.39 457.27L194.75 466H191.66L186.71 459.13L184.97 461.02V466Z M203.48 466.36Q201.14 466.36 199.52 465.33Q197.9 464.29 197.04 462.53Q196.19 460.78 196.19 458.59Q196.19 456.22 197.15 454.5Q198.11 452.77 199.74 451.82Q201.38 450.88 203.42 450.88Q205.19 450.88 206.54 451.59Q207.89 452.29 208.77 453.48Q209.66 454.66 210.06 456.16Q210.47 457.66 210.35 459.25H198.89Q198.95 461.11 199.71 462.19Q200.48 463.27 201.53 463.7Q202.58 464.14 203.48 464.14Q204.74 464.14 205.59 463.74Q206.45 463.33 206.96 462.67L209.39 463.39Q208.58 464.68 207.08 465.52Q205.58 466.36 203.48 466.36ZM198.92 457.24H207.68Q207.68 456.19 207.15 455.23Q206.63 454.27 205.68 453.65Q204.74 453.04 203.42 453.04Q202.31 453.04 201.32 453.46Q200.33 453.88 199.68 454.81Q199.04 455.74 198.92 457.24Z M213.32 466V451.12H215.18L215.84 453.37Q216.47 452.32 217.61 451.6Q218.75 450.88 220.64 450.88Q223.34 450.88 224.45 452.45Q225.56 454.03 225.56 456.58V466H223.04V457.33Q223.04 456.19 222.83 455.22Q222.62 454.24 221.91 453.64Q221.21 453.04 219.77 453.04Q217.94 453.04 216.89 454.28Q215.84 455.53 215.84 457.93V466Z  M244.28 466.36Q242.99 466.36 241.73 465.91Q240.47 465.46 239.43 464.51Q238.4 463.57 237.77 462.1Q237.14 460.63 237.14 458.62Q237.14 456.61 237.77 455.14Q238.4 453.67 239.43 452.73Q240.47 451.78 241.73 451.33Q242.99 450.88 244.28 450.88Q245.57 450.88 246.84 451.33Q248.12 451.78 249.15 452.73Q250.19 453.67 250.8 455.14Q251.42 456.61 251.42 458.62Q251.42 460.63 250.8 462.1Q250.19 463.57 249.15 464.51Q248.12 465.46 246.84 465.91Q245.57 466.36 244.28 466.36ZM244.28 464.14Q245.36 464.14 246.38 463.56Q247.4 462.97 248.06 461.75Q248.72 460.54 248.72 458.62Q248.72 456.7 248.06 455.49Q247.4 454.27 246.38 453.69Q245.36 453.1 244.28 453.1Q243.23 453.1 242.19 453.69Q241.16 454.27 240.5 455.49Q239.84 456.7 239.84 458.62Q239.84 460.54 240.5 461.75Q241.16 462.97 242.19 463.56Q243.23 464.14 244.28 464.14Z M254.66 470.83V451.12H256.49L257.18 453.46Q257.87 452.29 259.07 451.59Q260.27 450.88 262.01 450.88Q263.72 450.88 265.17 451.79Q266.63 452.71 267.51 454.44Q268.4 456.16 268.4 458.62Q268.4 461.05 267.51 462.79Q266.63 464.53 265.17 465.44Q263.72 466.36 262.01 466.36Q260.27 466.36 259.07 465.65Q257.87 464.95 257.18 463.75V470.83ZM261.35 464.2Q263.27 464.2 264.42 462.73Q265.58 461.26 265.58 458.62Q265.58 455.95 264.42 454.5Q263.27 453.04 261.35 453.04Q259.43 453.04 258.27 454.5Q257.12 455.95 257.12 458.62Q257.12 461.26 258.27 462.73Q259.43 464.2 261.35 464.2Z  M285.11 466.36Q283.82 466.36 282.57 465.96Q281.33 465.55 280.35 464.73Q279.38 463.9 278.87 462.64L281.3 461.74Q281.63 463.06 282.75 463.64Q283.88 464.23 285.11 464.23Q286.01 464.23 286.8 463.96Q287.6 463.69 288.11 463.18Q288.62 462.67 288.62 462.01Q288.62 460.78 287.64 460.27Q286.67 459.76 285.32 459.49L283.25 459.07Q282.17 458.83 281.24 458.39Q280.31 457.96 279.74 457.15Q279.17 456.34 279.17 454.99Q279.17 453.64 280.01 452.73Q280.85 451.81 282.15 451.33Q283.46 450.85 284.9 450.85Q286.67 450.85 288.24 451.59Q289.82 452.32 290.48 453.88L288.11 454.75Q287.72 453.85 286.74 453.42Q285.77 452.98 284.72 452.98Q283.58 452.98 282.65 453.49Q281.72 454 281.72 454.96Q281.72 455.92 282.51 456.36Q283.31 456.79 284.48 457.03L286.43 457.42Q287.63 457.66 288.71 458.11Q289.79 458.56 290.48 459.44Q291.17 460.33 291.17 461.92Q291.17 463.33 290.3 464.32Q289.43 465.31 288.05 465.84Q286.67 466.36 285.11 466.36Z M294.17 470.83V451.12H296L296.69 453.46Q297.38 452.29 298.58 451.59Q299.78 450.88 301.52 450.88Q303.23 450.88 304.68 451.79Q306.14 452.71 307.02 454.44Q307.91 456.16 307.91 458.62Q307.91 461.05 307.02 462.79Q306.14 464.53 304.68 465.44Q303.23 466.36 301.52 466.36Q299.78 466.36 298.58 465.65Q297.38 464.95 296.69 463.75V470.83ZM300.86 464.2Q302.78 464.2 303.93 462.73Q305.09 461.26 305.09 458.62Q305.09 455.95 303.93 454.5Q302.78 453.04 300.86 453.04Q298.94 453.04 297.78 454.5Q296.63 455.95 296.63 458.62Q296.63 461.26 297.78 462.73Q298.94 464.2 300.86 464.2Z M317.48 466.36Q315.14 466.36 313.52 465.33Q311.9 464.29 311.04 462.53Q310.19 460.78 310.19 458.59Q310.19 456.22 311.15 454.5Q312.11 452.77 313.74 451.82Q315.38 450.88 317.42 450.88Q319.19 450.88 320.54 451.59Q321.89 452.29 322.77 453.48Q323.66 454.66 324.06 456.16Q324.47 457.66 324.35 459.25H312.89Q312.95 461.11 313.71 462.19Q314.48 463.27 315.53 463.7Q316.58 464.14 317.48 464.14Q318.74 464.14 319.59 463.74Q320.45 463.33 320.96 462.67L323.39 463.39Q322.58 464.68 321.08 465.52Q319.58 466.36 317.48 466.36ZM312.92 457.24H321.68Q321.68 456.19 321.15 455.23Q320.63 454.27 319.68 453.65Q318.74 453.04 317.42 453.04Q316.31 453.04 315.32 453.46Q314.33 453.88 313.68 454.81Q313.04 455.74 312.92 457.24Z M333.29 466.36Q331.16 466.36 329.6 465.36Q328.04 464.35 327.2 462.61Q326.36 460.87 326.36 458.62Q326.36 456.4 327.25 454.64Q328.13 452.89 329.75 451.88Q331.37 450.88 333.56 450.88Q335.57 450.88 337.01 451.87Q338.45 452.86 339.17 454.24L336.86 455.08Q336.38 454.18 335.45 453.64Q334.52 453.1 333.38 453.1Q332.27 453.1 331.28 453.69Q330.29 454.27 329.69 455.49Q329.09 456.7 329.09 458.59Q329.09 460.45 329.7 461.69Q330.32 462.94 331.29 463.54Q332.27 464.14 333.38 464.14Q334.61 464.14 335.52 463.58Q336.44 463.03 336.92 462.19L339.23 463.03Q338.39 464.47 336.83 465.42Q335.27 466.36 333.29 466.36Z M344.9 448.3Q344.15 448.3 343.59 447.75Q343.04 447.19 343.04 446.41Q343.04 445.63 343.59 445.09Q344.15 444.55 344.9 444.55Q345.68 444.55 346.23 445.09Q346.79 445.63 346.79 446.41Q346.79 447.19 346.23 447.75Q345.68 448.3 344.9 448.3ZM343.64 466V453.13H341.57V451.12H346.16V466Z M351.53 466V453.13H349.01V451.12H351.53V448.9Q351.53 447.37 351.83 446.47Q352.13 445.57 353 445.19Q353.87 444.82 355.52 444.82H357.14V446.95H355.58Q354.62 446.95 354.33 447.34Q354.05 447.73 354.05 448.87V451.12H357.14V453.13H354.05V466Z M362.57 448.3Q361.82 448.3 361.26 447.75Q360.71 447.19 360.71 446.41Q360.71 445.63 361.26 445.09Q361.82 444.55 362.57 444.55Q363.35 444.55 363.9 445.09Q364.46 445.63 364.46 446.41Q364.46 447.19 363.9 447.75Q363.35 448.3 362.57 448.3ZM361.31 466V453.13H359.24V451.12H363.83V466Z M374.3 466.36Q372.17 466.36 370.61 465.36Q369.05 464.35 368.21 462.61Q367.37 460.87 367.37 458.62Q367.37 456.4 368.25 454.64Q369.14 452.89 370.76 451.88Q372.38 450.88 374.57 450.88Q376.58 450.88 378.02 451.87Q379.46 452.86 380.18 454.24L377.87 455.08Q377.39 454.18 376.46 453.64Q375.53 453.1 374.39 453.1Q373.28 453.1 372.29 453.69Q371.3 454.27 370.7 455.49Q370.1 456.7 370.1 458.59Q370.1 460.45 370.71 461.69Q371.33 462.94 372.3 463.54Q373.28 464.14 374.39 464.14Q375.62 464.14 376.53 463.58Q377.45 463.03 377.93 462.19L380.24 463.03Q379.4 464.47 377.84 465.42Q376.28 466.36 374.3 466.36Z M387.5 466.36Q386.09 466.36 384.92 465.85Q383.75 465.34 383.06 464.38Q382.37 463.42 382.37 462.07Q382.37 460.3 383.61 459.28Q384.86 458.26 387.12 457.7Q389.39 457.15 392.42 456.82Q392.48 454.93 391.67 453.91Q390.86 452.89 389.06 452.89Q387.71 452.89 386.85 453.5Q386 454.12 385.76 455.2L383.33 454.48Q383.93 452.77 385.47 451.82Q387.02 450.88 389.03 450.88Q392.12 450.88 393.54 452.34Q394.97 453.79 394.97 456.91V460.39Q394.97 462.25 395.12 463.6Q395.27 464.95 395.48 466H393.17L392.57 463.96Q391.91 465.07 390.68 465.72Q389.45 466.36 387.5 466.36ZM388.04 464.35Q389.21 464.35 390.26 463.93Q391.31 463.51 391.97 462.5Q392.63 461.5 392.63 459.76V458.83Q390.35 459.07 388.67 459.41Q386.99 459.76 386.07 460.38Q385.16 460.99 385.16 462.01Q385.16 463.06 385.92 463.71Q386.69 464.35 388.04 464.35Z M403.64 466Q402.23 466 401.46 465.72Q400.7 465.43 400.41 464.62Q400.13 463.81 400.13 462.28V453.13H397.61V451.12H400.13V447.37H402.65V451.12H405.53V453.13H402.65V461.86Q402.65 463 402.87 463.39Q403.1 463.78 404.18 463.78H405.53V466Z M411.41 448.3Q410.66 448.3 410.1 447.75Q409.55 447.19 409.55 446.41Q409.55 445.63 410.1 445.09Q410.66 444.55 411.41 444.55Q412.19 444.55 412.74 445.09Q413.3 445.63 413.3 446.41Q413.3 447.19 412.74 447.75Q412.19 448.3 411.41 448.3ZM410.15 466V453.13H408.08V451.12H412.67V466Z M423.5 466.36Q421.16 466.36 419.54 465.33Q417.92 464.29 417.06 462.53Q416.21 460.78 416.21 458.59Q416.21 456.22 417.17 454.5Q418.13 452.77 419.76 451.82Q421.4 450.88 423.44 450.88Q425.21 450.88 426.56 451.59Q427.91 452.29 428.79 453.48Q429.68 454.66 430.08 456.16Q430.49 457.66 430.37 459.25H418.91Q418.97 461.11 419.73 462.19Q420.5 463.27 421.55 463.7Q422.6 464.14 423.5 464.14Q424.76 464.14 425.61 463.74Q426.47 463.33 426.98 462.67L429.41 463.39Q428.6 464.68 427.1 465.52Q425.6 466.36 423.5 466.36ZM418.94 457.24H427.7Q427.7 456.19 427.17 455.23Q426.65 454.27 425.7 453.65Q424.76 453.04 423.44 453.04Q422.33 453.04 421.34 453.46Q420.35 453.88 419.7 454.81Q419.06 455.74 418.94 457.24Z M438.41 466.36Q437.12 466.36 435.87 465.96Q434.63 465.55 433.65 464.73Q432.68 463.9 432.17 462.64L434.6 461.74Q434.93 463.06 436.05 463.64Q437.18 464.23 438.41 464.23Q439.31 464.23 440.1 463.96Q440.9 463.69 441.41 463.18Q441.92 462.67 441.92 462.01Q441.92 460.78 440.94 460.27Q439.97 459.76 438.62 459.49L436.55 459.07Q435.47 458.83 434.54 458.39Q433.61 457.96 433.04 457.15Q432.47 456.34 432.47 454.99Q432.47 453.64 433.31 452.73Q434.15 451.81 435.45 451.33Q436.76 450.85 438.2 450.85Q439.97 450.85 441.54 451.59Q443.12 452.32 443.78 453.88L441.41 454.75Q441.02 453.85 440.04 453.42Q439.07 452.98 438.02 452.98Q436.88 452.98 435.95 453.49Q435.02 454 435.02 454.96Q435.02 455.92 435.81 456.36Q436.61 456.79 437.78 457.03L439.73 457.42Q440.93 457.66 442.01 458.11Q443.09 458.56 443.78 459.44Q444.47 460.33 444.47 461.92Q444.47 463.33 443.6 464.32Q442.73 465.31 441.35 465.84Q439.97 466.36 438.41 466.36Z  M462.2 466.36Q459.86 466.36 458.24 465.33Q456.62 464.29 455.76 462.53Q454.91 460.78 454.91 458.59Q454.91 456.22 455.87 454.5Q456.83 452.77 458.46 451.82Q460.1 450.88 462.14 450.88Q463.91 450.88 465.26 451.59Q466.61 452.29 467.49 453.48Q468.38 454.66 468.78 456.16Q469.19 457.66 469.07 459.25H457.61Q457.67 461.11 458.43 462.19Q459.2 463.27 460.25 463.7Q461.3 464.14 462.2 464.14Q463.46 464.14 464.31 463.74Q465.17 463.33 465.68 462.67L468.11 463.39Q467.3 464.68 465.8 465.52Q464.3 466.36 462.2 466.36ZM457.64 457.24H466.4Q466.4 456.19 465.87 455.23Q465.35 454.27 464.4 453.65Q463.46 453.04 462.14 453.04Q461.03 453.04 460.04 453.46Q459.05 453.88 458.4 454.81Q457.76 455.74 457.64 457.24Z M472.04 466V451.12H473.9L474.56 453.37Q475.19 452.32 476.33 451.6Q477.47 450.88 479.36 450.88Q482.06 450.88 483.17 452.45Q484.28 454.03 484.28 456.58V466H481.76V457.33Q481.76 456.19 481.55 455.22Q481.34 454.24 480.63 453.64Q479.93 453.04 478.49 453.04Q476.66 453.04 475.61 454.28Q474.56 455.53 474.56 457.93V466Z  M502.94 471.76Q501.74 471.76 500.55 471.41Q499.37 471.07 498.45 470.29Q497.54 469.51 497.15 468.28L499.67 467.59Q500.09 468.76 501.05 469.15Q502.01 469.54 502.94 469.54Q505.25 469.54 506.07 468.43Q506.9 467.32 506.9 465.16V463.18Q506.21 464.35 505.07 465.04Q503.93 465.73 502.16 465.73Q500.51 465.73 499.07 464.88Q497.63 464.02 496.74 462.36Q495.86 460.69 495.86 458.32Q495.86 455.92 496.74 454.27Q497.63 452.62 499.07 451.75Q500.51 450.88 502.16 450.88Q503.93 450.88 505.07 451.59Q506.21 452.29 506.9 453.46L507.59 451.12H509.42V464.59Q509.42 468.13 507.99 469.94Q506.57 471.76 502.94 471.76ZM502.79 463.63Q503.93 463.63 504.87 463.09Q505.82 462.55 506.4 461.38Q506.99 460.21 506.99 458.32Q506.99 456.43 506.4 455.26Q505.82 454.09 504.87 453.56Q503.93 453.04 502.79 453.04Q500.96 453.04 499.77 454.4Q498.59 455.77 498.59 458.32Q498.59 460.87 499.77 462.25Q500.96 463.63 502.79 463.63Z M519.95 466.36Q517.61 466.36 515.99 465.33Q514.37 464.29 513.51 462.53Q512.66 460.78 512.66 458.59Q512.66 456.22 513.62 454.5Q514.58 452.77 516.21 451.82Q517.85 450.88 519.89 450.88Q521.66 450.88 523.01 451.59Q524.36 452.29 525.24 453.48Q526.13 454.66 526.53 456.16Q526.94 457.66 526.82 459.25H515.36Q515.42 461.11 516.18 462.19Q516.95 463.27 518 463.7Q519.05 464.14 519.95 464.14Q521.21 464.14 522.06 463.74Q522.92 463.33 523.43 462.67L525.86 463.39Q525.05 464.68 523.55 465.52Q522.05 466.36 519.95 466.36ZM515.39 457.24H524.15Q524.15 456.19 523.62 455.23Q523.1 454.27 522.15 453.65Q521.21 453.04 519.89 453.04Q518.78 453.04 517.79 453.46Q516.8 453.88 516.15 454.81Q515.51 455.74 515.39 457.24Z M537.14 466.36Q535.4 466.36 534.2 465.65Q533 464.95 532.31 463.75L531.65 466H529.79V445.96H532.31V453.46Q533 452.29 534.2 451.59Q535.4 450.88 537.14 450.88Q538.85 450.88 540.3 451.79Q541.76 452.71 542.64 454.44Q543.53 456.16 543.53 458.62Q543.53 461.08 542.64 462.8Q541.76 464.53 540.3 465.44Q538.85 466.36 537.14 466.36ZM536.48 464.2Q538.4 464.2 539.55 462.73Q540.71 461.26 540.71 458.62Q540.71 455.95 539.55 454.5Q538.4 453.04 536.48 453.04Q534.56 453.04 533.4 454.5Q532.25 455.95 532.25 458.62Q532.25 461.26 533.4 462.73Q534.56 464.2 536.48 464.2Z M546.77 466V451.12H548.6L549.41 453.88Q550.19 452.53 551.52 451.7Q552.86 450.88 554.72 450.88V453.49Q554.51 453.49 554.28 453.49Q554.06 453.49 553.85 453.52Q551.3 453.73 550.29 455.29Q549.29 456.85 549.29 459.61V466Z M561.68 466.36Q559.94 466.36 558.89 465.62Q557.84 464.89 557.37 463.58Q556.91 462.28 556.91 460.6V451.09H559.43V460Q559.43 461.65 559.82 462.55Q560.21 463.45 560.91 463.79Q561.62 464.14 562.55 464.14Q564.32 464.14 565.32 462.89Q566.33 461.65 566.33 459.28V451.09H568.85V466H566.96L566.33 463.84Q565.7 464.92 564.62 465.64Q563.54 466.36 561.68 466.36Z M575.63 448.3Q574.88 448.3 574.32 447.75Q573.77 447.19 573.77 446.41Q573.77 445.63 574.32 445.09Q574.88 444.55 575.63 444.55Q576.41 444.55 576.96 445.09Q577.52 445.63 577.52 446.41Q577.52 447.19 576.96 447.75Q576.41 448.3 575.63 448.3ZM574.37 466V453.13H572.3V451.12H576.89V466Z M581.39 466V445.96H583.91V457.81L589.91 451.12H592.94L587.33 457.27L593.69 466H590.6L585.65 459.13L583.91 461.02V466Z M602.42 466.36Q600.08 466.36 598.46 465.33Q596.84 464.29 595.99 462.53Q595.13 460.78 595.13 458.59Q595.13 456.22 596.09 454.5Q597.05 452.77 598.68 451.82Q600.32 450.88 602.36 450.88Q604.13 450.88 605.48 451.59Q606.83 452.29 607.72 453.48Q608.6 454.66 609 456.16Q609.41 457.66 609.29 459.25H597.83Q597.89 461.11 598.65 462.19Q599.42 463.27 600.47 463.7Q601.52 464.14 602.42 464.14Q603.68 464.14 604.54 463.74Q605.39 463.33 605.9 462.67L608.33 463.39Q607.52 464.68 606.02 465.52Q604.52 466.36 602.42 466.36ZM597.86 457.24H606.62Q606.62 456.19 606.1 455.23Q605.57 454.27 604.62 453.65Q603.68 453.04 602.36 453.04Q601.25 453.04 600.26 453.46Q599.27 453.88 598.62 454.81Q597.98 455.74 597.86 457.24Z M612.26 466V451.12H614.09L614.9 453.88Q615.68 452.53 617.01 451.7Q618.35 450.88 620.21 450.88V453.49Q620 453.49 619.77 453.49Q619.55 453.49 619.34 453.52Q616.79 453.73 615.78 455.29Q614.78 456.85 614.78 459.61V466Z M627.53 466.36Q626.24 466.36 625 465.96Q623.75 465.55 622.78 464.73Q621.8 463.9 621.29 462.64L623.72 461.74Q624.05 463.06 625.18 463.64Q626.3 464.23 627.53 464.23Q628.43 464.23 629.23 463.96Q630.02 463.69 630.53 463.18Q631.04 462.67 631.04 462.01Q631.04 460.78 630.07 460.27Q629.09 459.76 627.74 459.49L625.67 459.07Q624.59 458.83 623.66 458.39Q622.73 457.96 622.16 457.15Q621.59 456.34 621.59 454.99Q621.59 453.64 622.43 452.73Q623.27 451.81 624.58 451.33Q625.88 450.85 627.32 450.85Q629.09 450.85 630.66 451.59Q632.24 452.32 632.9 453.88L630.53 454.75Q630.14 453.85 629.16 453.42Q628.19 452.98 627.14 452.98Q626 452.98 625.07 453.49Q624.14 454 624.14 454.96Q624.14 455.92 624.93 456.36Q625.73 456.79 626.9 457.03L628.85 457.42Q630.05 457.66 631.13 458.11Q632.21 458.56 632.9 459.44Q633.59 460.33 633.59 461.92Q633.59 463.33 632.72 464.32Q631.85 465.31 630.47 465.84Q629.09 466.36 627.53 466.36Z M636.59 466V451.12H638.42L639.23 453.88Q640.01 452.53 641.35 451.7Q642.68 450.88 644.54 450.88V453.49Q644.33 453.49 644.11 453.49Q643.88 453.49 643.67 453.52Q641.12 453.73 640.12 455.29Q639.11 456.85 639.11 459.61V466Z M653.12 466.36Q650.78 466.36 649.16 465.33Q647.54 464.29 646.69 462.53Q645.83 460.78 645.83 458.59Q645.83 456.22 646.79 454.5Q647.75 452.77 649.38 451.82Q651.02 450.88 653.06 450.88Q654.83 450.88 656.18 451.59Q657.53 452.29 658.42 453.48Q659.3 454.66 659.71 456.16Q660.11 457.66 659.99 459.25H648.53Q648.59 461.11 649.36 462.19Q650.12 463.27 651.17 463.7Q652.22 464.14 653.12 464.14Q654.38 464.14 655.24 463.74Q656.09 463.33 656.6 462.67L659.03 463.39Q658.22 464.68 656.72 465.52Q655.22 466.36 653.12 466.36ZM648.56 457.24H657.32Q657.32 456.19 656.8 455.23Q656.27 454.27 655.33 453.65Q654.38 453.04 653.06 453.04Q651.95 453.04 650.96 453.46Q649.97 453.88 649.33 454.81Q648.68 455.74 648.56 457.24Z M666.17 466 660.86 451.12H663.59L667.49 462.7L671.36 451.12H674.09L668.78 466Z M678.77 448.3Q678.02 448.3 677.47 447.75Q676.91 447.19 676.91 446.41Q676.91 445.63 677.47 445.09Q678.02 444.55 678.77 444.55Q679.55 444.55 680.11 445.09Q680.66 445.63 680.66 446.41Q680.66 447.19 680.11 447.75Q679.55 448.3 678.77 448.3ZM677.51 466V453.13H675.44V451.12H680.03V466Z M690.86 466.36Q688.52 466.36 686.9 465.33Q685.28 464.29 684.43 462.53Q683.57 460.78 683.57 458.59Q683.57 456.22 684.53 454.5Q685.49 452.77 687.12 451.82Q688.76 450.88 690.8 450.88Q692.57 450.88 693.92 451.59Q695.27 452.29 696.16 453.48Q697.04 454.66 697.45 456.16Q697.85 457.66 697.73 459.25H686.27Q686.33 461.11 687.1 462.19Q687.86 463.27 688.91 463.7Q689.96 464.14 690.86 464.14Q692.12 464.14 692.98 463.74Q693.83 463.33 694.34 462.67L696.77 463.39Q695.96 464.68 694.46 465.52Q692.96 466.36 690.86 466.36ZM686.3 457.24H695.06Q695.06 456.19 694.54 455.23Q694.01 454.27 693.07 453.65Q692.12 453.04 690.8 453.04Q689.69 453.04 688.7 453.46Q687.71 453.88 687.07 454.81Q686.42 455.74 686.3 457.24Z M702.89 466 698.6 451.12H701.3L704.15 462.13L707.12 451.12H709.73L712.67 462.13L715.52 451.12H718.22L713.96 466H711.65L708.41 454.03L705.17 466Z M725.39 466.36Q724.1 466.36 722.86 465.96Q721.61 465.55 720.63 464.73Q719.66 463.9 719.15 462.64L721.58 461.74Q721.91 463.06 723.04 463.64Q724.16 464.23 725.39 464.23Q726.29 464.23 727.09 463.96Q727.88 463.69 728.39 463.18Q728.9 462.67 728.9 462.01Q728.9 460.78 727.92 460.27Q726.95 459.76 725.6 459.49L723.53 459.07Q722.45 458.83 721.52 458.39Q720.59 457.96 720.02 457.15Q719.45 456.34 719.45 454.99Q719.45 453.64 720.29 452.73Q721.13 451.81 722.43 451.33Q723.74 450.85 725.18 450.85Q726.95 450.85 728.53 451.59Q730.1 452.32 730.76 453.88L728.39 454.75Q728 453.85 727.03 453.42Q726.05 452.98 725 452.98Q723.86 452.98 722.93 453.49Q722 454 722 454.96Q722 455.92 722.8 456.36Q723.59 456.79 724.76 457.03L726.71 457.42Q727.91 457.66 728.99 458.11Q730.07 458.56 730.76 459.44Q731.45 460.33 731.45 461.92Q731.45 463.33 730.58 464.32Q729.71 465.31 728.33 465.84Q726.95 466.36 725.39 466.36Z M735.41 466.36Q734.63 466.36 734.06 465.79Q733.49 465.22 733.49 464.44Q733.49 463.63 734.06 463.06Q734.63 462.49 735.41 462.49Q736.22 462.49 736.79 463.06Q737.36 463.63 737.36 464.44Q737.36 465.22 736.79 465.79Q736.22 466.36 735.41 466.36Z"/>
  <rect x="80" y="516" width="405" height="52" rx="26" fill="#184C31"/><path fill="#FFFFFF" d="M103.06 553V536.97H115.39V540.3H106.85V543.09H112.06V546.42H106.85V549.66H115.39V553Z M121.06 553Q119.59 553 118.73 552.75Q117.86 552.5 117.49 551.76Q117.12 551.03 117.12 549.64V536.97H120.77V548.68Q120.77 549.52 121.1 549.77Q121.44 550.02 122.35 550.02H123.38V553Z M124.66 553V536.97H128.3V545.61L132.29 541.1H136.61L131.95 546.06L136.97 553H132.65L129.55 548.68L128.3 550V553Z M144.17 553.29Q142.25 553.29 140.77 552.53Q139.3 551.78 138.47 550.36Q137.64 548.94 137.64 546.98Q137.64 545.08 138.52 543.69Q139.39 542.3 140.84 541.53Q142.3 540.76 144.02 540.76Q145.99 540.76 147.4 541.68Q148.8 542.61 149.52 544.23Q150.24 545.85 150.12 547.96H141.31Q141.41 549.21 142.24 549.83Q143.06 550.46 144.07 550.46Q144.91 550.46 145.52 550.2Q146.14 549.95 146.47 549.57L149.38 550.62Q148.44 551.99 147.04 552.64Q145.63 553.29 144.17 553.29ZM141.31 545.8H146.74Q146.71 544.65 145.94 544.06Q145.18 543.47 144.12 543.47Q143.09 543.47 142.28 544.02Q141.48 544.58 141.31 545.8Z  M161.3 553 158.33 541.1H161.93L163.73 549.16L165.26 541.1H168.72L170.26 549.16L172.06 541.1H175.68L172.7 553H168.72L166.99 544.46L165.29 553Z M180.36 553.29Q179.23 553.29 178.3 552.86Q177.36 552.42 176.81 551.64Q176.26 550.86 176.26 549.78Q176.26 548.32 177.28 547.46Q178.3 546.59 180.07 546.16Q181.85 545.73 184.15 545.56Q184.15 544.29 183.74 543.76Q183.34 543.23 182.16 543.23Q181.42 543.23 180.85 543.58Q180.29 543.93 180.1 544.65L177.02 543.54Q177.62 542.34 179.03 541.55Q180.43 540.76 182.47 540.76Q185.02 540.76 186.38 541.89Q187.75 543.02 187.75 545.73V548.34Q187.75 549.11 187.8 550Q187.85 550.89 187.94 551.68Q188.04 552.47 188.16 553H184.78L184.34 551.56Q183.67 552.5 182.65 552.89Q181.63 553.29 180.36 553.29ZM181.7 550.79Q182.78 550.79 183.5 550.22Q184.22 549.64 184.22 548.01V547.72Q182.33 547.89 181.18 548.24Q180.02 548.58 180.02 549.52Q180.02 550.1 180.5 550.44Q180.98 550.79 181.7 550.79Z M193.63 553.29Q192.5 553.29 191.57 552.86Q190.63 552.42 190.08 551.64Q189.53 550.86 189.53 549.78Q189.53 548.32 190.55 547.46Q191.57 546.59 193.34 546.16Q195.12 545.73 197.42 545.56Q197.42 544.29 197.02 543.76Q196.61 543.23 195.43 543.23Q194.69 543.23 194.12 543.58Q193.56 543.93 193.37 544.65L190.3 543.54Q190.9 542.34 192.3 541.55Q193.7 540.76 195.74 540.76Q198.29 540.76 199.66 541.89Q201.02 543.02 201.02 545.73V548.34Q201.02 549.11 201.07 550Q201.12 550.89 201.22 551.68Q201.31 552.47 201.43 553H198.05L197.62 551.56Q196.94 552.5 195.92 552.89Q194.9 553.29 193.63 553.29ZM194.98 550.79Q196.06 550.79 196.78 550.22Q197.5 549.64 197.5 548.01V547.72Q195.6 547.89 194.45 548.24Q193.3 548.58 193.3 549.52Q193.3 550.1 193.78 550.44Q194.26 550.79 194.98 550.79Z M203.42 553V541.1H206.3L206.95 543.28Q207.5 541.84 208.46 541.26Q209.42 540.69 210.79 540.76V544.41Q210.5 544.36 210.29 544.35Q210.07 544.34 209.81 544.34Q208.49 544.34 207.78 544.96Q207.07 545.58 207.07 547V553Z M216.98 553.29Q215.45 553.29 214.26 552.52Q213.07 551.75 212.4 550.32Q211.73 548.9 211.73 546.95Q211.73 545.01 212.4 543.63Q213.07 542.25 214.26 541.5Q215.45 540.76 216.98 540.76Q217.97 540.76 219 541.25Q220.03 541.74 220.61 542.73V536.97H224.26V548.34Q224.26 549.23 224.34 550.46Q224.42 551.68 224.66 553H221.18L220.7 551.39Q219.96 552.42 218.96 552.86Q217.97 553.29 216.98 553.29ZM218.16 550.46Q219.22 550.46 220 549.66Q220.78 548.87 220.78 547.02Q220.78 545.2 220 544.4Q219.22 543.59 218.16 543.59Q217.08 543.59 216.3 544.46Q215.52 545.32 215.52 546.95Q215.52 548.61 216.3 549.53Q217.08 550.46 218.16 550.46Z M232.56 553.29Q230.64 553.29 229.16 552.53Q227.69 551.78 226.86 550.36Q226.03 548.94 226.03 546.98Q226.03 545.08 226.91 543.69Q227.78 542.3 229.24 541.53Q230.69 540.76 232.42 540.76Q234.38 540.76 235.79 541.68Q237.19 542.61 237.91 544.23Q238.63 545.85 238.51 547.96H229.7Q229.8 549.21 230.63 549.83Q231.46 550.46 232.46 550.46Q233.3 550.46 233.92 550.2Q234.53 549.95 234.86 549.57L237.77 550.62Q236.83 551.99 235.43 552.64Q234.02 553.29 232.56 553.29ZM229.7 545.8H235.13Q235.1 544.65 234.34 544.06Q233.57 543.47 232.51 543.47Q231.48 543.47 230.68 544.02Q229.87 544.58 229.7 545.8Z  M247.92 553V541.1H251.11L251.57 542.68Q251.98 542.01 252.91 541.38Q253.85 540.76 255.17 540.76Q256.58 540.76 257.44 541.26Q258.29 541.77 258.7 542.75Q259.39 541.77 260.46 541.26Q261.53 540.76 262.78 540.76Q265.06 540.76 265.92 542.04Q266.78 543.33 266.78 545.75V553H263.14V546.66Q263.14 545.82 263.04 545.13Q262.94 544.43 262.56 544.01Q262.18 543.59 261.29 543.59Q260.18 543.59 259.68 544.37Q259.18 545.15 259.18 546.71V553H255.5V546.66Q255.5 545.82 255.42 545.13Q255.34 544.43 254.96 544.01Q254.59 543.59 253.73 543.59Q252.6 543.59 252.08 544.41Q251.57 545.22 251.57 546.78V553Z M275.09 553.29Q273.17 553.29 271.69 552.53Q270.22 551.78 269.39 550.36Q268.56 548.94 268.56 546.98Q268.56 545.08 269.44 543.69Q270.31 542.3 271.76 541.53Q273.22 540.76 274.94 540.76Q276.91 540.76 278.32 541.68Q279.72 542.61 280.44 544.23Q281.16 545.85 281.04 547.96H272.23Q272.33 549.21 273.16 549.83Q273.98 550.46 274.99 550.46Q275.83 550.46 276.44 550.2Q277.06 549.95 277.39 549.57L280.3 550.62Q279.36 551.99 277.96 552.64Q276.55 553.29 275.09 553.29ZM272.23 545.8H277.66Q277.63 544.65 276.86 544.06Q276.1 543.47 275.04 543.47Q274.01 543.47 273.2 544.02Q272.4 544.58 272.23 545.8Z M287.78 553Q286.32 553 285.46 552.75Q284.59 552.5 284.22 551.76Q283.85 551.03 283.85 549.64V543.88H281.88V541.1H283.85V538.12H287.5V541.1H290.09V543.88H287.5V548.68Q287.5 549.52 287.82 549.77Q288.14 550.02 289.03 550.02H290.09V553Z  M306.82 553.29Q305.86 553.29 304.81 552.83Q303.77 552.38 303.19 551.39L302.74 553H299.54V536.97H303.19V542.73Q303.77 541.74 304.81 541.25Q305.86 540.76 306.82 540.76Q308.35 540.76 309.54 541.5Q310.73 542.25 311.4 543.63Q312.07 545.01 312.07 546.95Q312.07 548.9 311.4 550.32Q310.73 551.75 309.54 552.52Q308.35 553.29 306.82 553.29ZM305.66 550.46Q306.72 550.46 307.5 549.53Q308.28 548.61 308.28 546.95Q308.28 545.32 307.5 544.46Q306.72 543.59 305.66 543.59Q304.58 543.59 303.8 544.4Q303.02 545.2 303.02 547.02Q303.02 548.87 303.8 549.66Q304.58 550.46 305.66 550.46Z M313.85 553V541.1H316.73L317.38 543.28Q317.93 541.84 318.89 541.26Q319.85 540.69 321.22 540.76V544.41Q320.93 544.36 320.71 544.35Q320.5 544.34 320.23 544.34Q318.91 544.34 318.2 544.96Q317.5 545.58 317.5 547V553Z M328.46 553.29Q326.81 553.29 325.37 552.62Q323.93 551.94 323.04 550.54Q322.15 549.14 322.15 547Q322.15 544.84 323.04 543.46Q323.93 542.08 325.37 541.42Q326.81 540.76 328.46 540.76Q330.1 540.76 331.54 541.42Q332.98 542.08 333.86 543.46Q334.75 544.84 334.75 547Q334.75 549.14 333.86 550.54Q332.98 551.94 331.54 552.62Q330.1 553.29 328.46 553.29ZM328.46 550.46Q329.57 550.46 330.3 549.66Q331.03 548.87 331.03 547Q331.03 545.1 330.28 544.35Q329.52 543.59 328.46 543.59Q327.38 543.59 326.63 544.35Q325.87 545.1 325.87 547Q325.87 548.87 326.62 549.66Q327.36 550.46 328.46 550.46Z M336.53 553V541.1H339.72L340.18 542.68Q340.58 542.01 341.53 541.38Q342.48 540.76 343.85 540.76Q346.15 540.76 347 542.04Q347.86 543.33 347.86 545.75V553H344.21V546.66Q344.21 545.82 344.11 545.13Q344.02 544.43 343.64 544.01Q343.27 543.59 342.38 543.59Q341.23 543.59 340.7 544.42Q340.18 545.25 340.18 546.88V553Z  M363.84 553.29Q361.92 553.29 360.44 552.53Q358.97 551.78 358.14 550.36Q357.31 548.94 357.31 546.98Q357.31 545.08 358.19 543.69Q359.06 542.3 360.52 541.53Q361.97 540.76 363.7 540.76Q365.66 540.76 367.07 541.68Q368.47 542.61 369.19 544.23Q369.91 545.85 369.79 547.96H360.98Q361.08 549.21 361.91 549.83Q362.74 550.46 363.74 550.46Q364.58 550.46 365.2 550.2Q365.81 549.95 366.14 549.57L369.05 550.62Q368.11 551.99 366.71 552.64Q365.3 553.29 363.84 553.29ZM360.98 545.8H366.41Q366.38 544.65 365.62 544.06Q364.85 543.47 363.79 543.47Q362.76 543.47 361.96 544.02Q361.15 544.58 360.98 545.8Z M371.52 553V541.1H374.71L375.17 542.68Q375.58 542.01 376.52 541.38Q377.47 540.76 378.84 540.76Q381.14 540.76 382 542.04Q382.85 543.33 382.85 545.75V553H379.2V546.66Q379.2 545.82 379.1 545.13Q379.01 544.43 378.64 544.01Q378.26 543.59 377.38 543.59Q376.22 543.59 375.7 544.42Q375.17 545.25 375.17 546.88V553Z  M397.56 553.29Q396.02 553.29 394.84 552.52Q393.65 551.75 392.98 550.32Q392.3 548.9 392.3 546.95Q392.3 545.01 392.98 543.63Q393.65 542.25 394.84 541.5Q396.02 540.76 397.56 540.76Q398.54 540.76 399.58 541.25Q400.61 541.74 401.18 542.73V536.97H404.83V548.34Q404.83 549.23 404.92 550.46Q405 551.68 405.24 553H401.76L401.28 551.39Q400.54 552.42 399.54 552.86Q398.54 553.29 397.56 553.29ZM398.74 550.46Q399.79 550.46 400.57 549.66Q401.35 548.87 401.35 547.02Q401.35 545.2 400.57 544.4Q399.79 543.59 398.74 543.59Q397.66 543.59 396.88 544.46Q396.1 545.32 396.1 546.95Q396.1 548.61 396.88 549.53Q397.66 550.46 398.74 550.46Z M410.71 553.29Q409.58 553.29 408.65 552.86Q407.71 552.42 407.16 551.64Q406.61 550.86 406.61 549.78Q406.61 548.32 407.63 547.46Q408.65 546.59 410.42 546.16Q412.2 545.73 414.5 545.56Q414.5 544.29 414.1 543.76Q413.69 543.23 412.51 543.23Q411.77 543.23 411.2 543.58Q410.64 543.93 410.45 544.65L407.38 543.54Q407.98 542.34 409.38 541.55Q410.78 540.76 412.82 540.76Q415.37 540.76 416.74 541.89Q418.1 543.02 418.1 545.73V548.34Q418.1 549.11 418.15 550Q418.2 550.89 418.3 551.68Q418.39 552.47 418.51 553H415.13L414.7 551.56Q414.02 552.5 413 552.89Q411.98 553.29 410.71 553.29ZM412.06 550.79Q413.14 550.79 413.86 550.22Q414.58 549.64 414.58 548.01V547.72Q412.68 547.89 411.53 548.24Q410.38 548.58 410.38 549.52Q410.38 550.1 410.86 550.44Q411.34 550.79 412.06 550.79Z M425.52 553Q424.06 553 423.19 552.75Q422.33 552.5 421.96 551.76Q421.58 551.03 421.58 549.64V543.88H419.62V541.1H421.58V538.12H425.23V541.1H427.82V543.88H425.23V548.68Q425.23 549.52 425.56 549.77Q425.88 550.02 426.77 550.02H427.82V553Z M433.73 553.29Q432.14 553.29 431.24 552.7Q430.34 552.11 429.97 550.98Q429.6 549.86 429.6 548.25V541.1H433.25V547.74Q433.25 549.38 433.74 549.92Q434.23 550.46 435.12 550.46Q436.2 550.46 436.69 549.74Q437.18 549.02 437.18 547.36V541.1H440.86V553H437.69L437.18 551.32Q436.66 552.21 435.88 552.75Q435.1 553.29 433.73 553.29Z M443.28 553V541.1H446.47L446.93 542.68Q447.34 542.01 448.27 541.38Q449.21 540.76 450.53 540.76Q451.94 540.76 452.8 541.26Q453.65 541.77 454.06 542.75Q454.75 541.77 455.82 541.26Q456.89 540.76 458.14 540.76Q460.42 540.76 461.28 542.04Q462.14 543.33 462.14 545.75V553H458.5V546.66Q458.5 545.82 458.4 545.13Q458.3 544.43 457.92 544.01Q457.54 543.59 456.65 543.59Q455.54 543.59 455.04 544.37Q454.54 545.15 454.54 546.71V553H450.86V546.66Q450.86 545.82 450.78 545.13Q450.7 544.43 450.32 544.01Q449.95 543.59 449.09 543.59Q447.96 543.59 447.44 544.41Q446.93 545.22 446.93 546.78V553Z"/><rect x="501" y="516" width="293" height="52" rx="26" fill="#184C31"/><path fill="#FFFFFF" d="M532.49 553.29Q530.04 553.29 528.17 552.26Q526.3 551.22 525.24 549.35Q524.18 547.48 524.18 544.98Q524.18 542.49 525.24 540.62Q526.3 538.74 528.17 537.71Q530.04 536.68 532.49 536.68Q534.96 536.68 536.83 537.71Q538.7 538.74 539.77 540.62Q540.84 542.49 540.84 544.98Q540.84 547.48 539.77 549.35Q538.7 551.22 536.83 552.26Q534.96 553.29 532.49 553.29ZM532.49 550.17Q533.66 550.17 534.65 549.58Q535.63 548.99 536.22 547.84Q536.81 546.69 536.81 544.98Q536.81 543.28 536.22 542.13Q535.63 540.98 534.65 540.39Q533.66 539.8 532.49 539.8Q531.34 539.8 530.35 540.39Q529.37 540.98 528.78 542.13Q528.19 543.28 528.19 544.98Q528.19 546.69 528.78 547.84Q529.37 548.99 530.35 549.58Q531.34 550.17 532.49 550.17Z M542.88 556.86V541.1H546.05L546.53 542.73Q547.1 541.74 548.15 541.25Q549.19 540.76 550.15 540.76Q551.69 540.76 552.88 541.53Q554.06 542.3 554.74 543.7Q555.41 545.1 555.41 547.05Q555.41 548.99 554.74 550.4Q554.06 551.8 552.88 552.54Q551.69 553.29 550.15 553.29Q549.19 553.29 548.15 552.78Q547.1 552.28 546.53 551.3V556.86ZM549 550.46Q550.06 550.46 550.84 549.59Q551.62 548.73 551.62 547.05Q551.62 545.42 550.84 544.5Q550.06 543.59 549 543.59Q547.92 543.59 547.14 544.36Q546.36 545.13 546.36 546.98Q546.36 548.8 547.14 549.63Q547.92 550.46 549 550.46Z M563.09 553.29Q561.17 553.29 559.69 552.53Q558.22 551.78 557.39 550.36Q556.56 548.94 556.56 546.98Q556.56 545.08 557.44 543.69Q558.31 542.3 559.76 541.53Q561.22 540.76 562.94 540.76Q564.91 540.76 566.32 541.68Q567.72 542.61 568.44 544.23Q569.16 545.85 569.04 547.96H560.23Q560.33 549.21 561.16 549.83Q561.98 550.46 562.99 550.46Q563.83 550.46 564.44 550.2Q565.06 549.95 565.39 549.57L568.3 550.62Q567.36 551.99 565.96 552.64Q564.55 553.29 563.09 553.29ZM560.23 545.8H565.66Q565.63 544.65 564.86 544.06Q564.1 543.47 563.04 543.47Q562.01 543.47 561.2 544.02Q560.4 544.58 560.23 545.8Z M570.77 553V541.1H573.96L574.42 542.68Q574.82 542.01 575.77 541.38Q576.72 540.76 578.09 540.76Q580.39 540.76 581.24 542.04Q582.1 543.33 582.1 545.75V553H578.45V546.66Q578.45 545.82 578.35 545.13Q578.26 544.43 577.88 544.01Q577.51 543.59 576.62 543.59Q575.47 543.59 574.94 544.42Q574.42 545.25 574.42 546.88V553Z M591.77 553.29Q590.81 553.29 589.76 552.83Q588.72 552.38 588.14 551.39L587.69 553H584.5V536.97H588.14V542.73Q588.72 541.74 589.76 541.25Q590.81 540.76 591.77 540.76Q593.3 540.76 594.49 541.5Q595.68 542.25 596.35 543.63Q597.02 545.01 597.02 546.95Q597.02 548.9 596.35 550.32Q595.68 551.75 594.49 552.52Q593.3 553.29 591.77 553.29ZM590.62 550.46Q591.67 550.46 592.45 549.53Q593.23 548.61 593.23 546.95Q593.23 545.32 592.45 544.46Q591.67 543.59 590.62 543.59Q589.54 543.59 588.76 544.4Q587.98 545.2 587.98 547.02Q587.98 548.87 588.76 549.66Q589.54 550.46 590.62 550.46Z M602.28 553.29Q601.15 553.29 600.22 552.86Q599.28 552.42 598.73 551.64Q598.18 550.86 598.18 549.78Q598.18 548.32 599.2 547.46Q600.22 546.59 601.99 546.16Q603.77 545.73 606.07 545.56Q606.07 544.29 605.66 543.76Q605.26 543.23 604.08 543.23Q603.34 543.23 602.77 543.58Q602.21 543.93 602.02 544.65L598.94 543.54Q599.54 542.34 600.95 541.55Q602.35 540.76 604.39 540.76Q606.94 540.76 608.3 541.89Q609.67 543.02 609.67 545.73V548.34Q609.67 549.11 609.72 550Q609.77 550.89 609.86 551.68Q609.96 552.47 610.08 553H606.7L606.26 551.56Q605.59 552.5 604.57 552.89Q603.55 553.29 602.28 553.29ZM603.62 550.79Q604.7 550.79 605.42 550.22Q606.14 549.64 606.14 548.01V547.72Q604.25 547.89 603.1 548.24Q601.94 548.58 601.94 549.52Q601.94 550.1 602.42 550.44Q602.9 550.79 603.62 550.79Z M615.55 553.29Q614.42 553.29 613.49 552.86Q612.55 552.42 612 551.64Q611.45 550.86 611.45 549.78Q611.45 548.32 612.47 547.46Q613.49 546.59 615.26 546.16Q617.04 545.73 619.34 545.56Q619.34 544.29 618.94 543.76Q618.53 543.23 617.35 543.23Q616.61 543.23 616.04 543.58Q615.48 543.93 615.29 544.65L612.22 543.54Q612.82 542.34 614.22 541.55Q615.62 540.76 617.66 540.76Q620.21 540.76 621.58 541.89Q622.94 543.02 622.94 545.73V548.34Q622.94 549.11 622.99 550Q623.04 550.89 623.14 551.68Q623.23 552.47 623.35 553H619.97L619.54 551.56Q618.86 552.5 617.84 552.89Q616.82 553.29 615.55 553.29ZM616.9 550.79Q617.98 550.79 618.7 550.22Q619.42 549.64 619.42 548.01V547.72Q617.52 547.89 616.37 548.24Q615.22 548.58 615.22 549.52Q615.22 550.1 615.7 550.44Q616.18 550.79 616.9 550.79Z M625.34 553V541.1H628.22L628.87 543.28Q629.42 541.84 630.38 541.26Q631.34 540.69 632.71 540.76V544.41Q632.42 544.36 632.21 544.35Q631.99 544.34 631.73 544.34Q630.41 544.34 629.7 544.96Q628.99 545.58 628.99 547V553Z  M647.09 553.29Q645 553.29 643.48 552.52Q641.95 551.75 641.26 550.26L644.35 549.14Q644.62 549.88 645.37 550.25Q646.13 550.62 647.16 550.62Q648.05 550.62 648.73 550.35Q649.42 550.07 649.42 549.52Q649.42 549.14 649.01 548.87Q648.6 548.61 647.57 548.44L645.43 548.08Q643.7 547.79 642.62 546.9Q641.54 546.02 641.54 544.53Q641.54 543.28 642.3 542.44Q643.06 541.6 644.3 541.18Q645.55 540.76 647.02 540.76Q648.72 540.76 650.17 541.37Q651.62 541.98 652.3 543.4L649.22 544.53Q649.06 543.88 648.43 543.65Q647.81 543.42 646.99 543.42Q645.02 543.42 645.02 544.38Q645.02 544.74 645.36 544.97Q645.7 545.2 646.49 545.34L648.7 545.75Q650.86 546.14 651.89 546.88Q652.92 547.62 652.92 549.11Q652.92 550.5 652.13 551.44Q651.34 552.38 650.02 552.83Q648.7 553.29 647.09 553.29Z M660.24 553.29Q658.27 553.29 656.92 552.5Q655.56 551.7 654.85 550.28Q654.14 548.85 654.14 546.98Q654.14 545.1 654.91 543.7Q655.68 542.3 657.06 541.53Q658.44 540.76 660.24 540.76Q661.27 540.76 662.29 541.05Q663.31 541.34 664.19 542.02Q665.06 542.7 665.62 543.88L662.57 544.98Q662.28 544.22 661.72 543.9Q661.15 543.59 660.46 543.59Q659.81 543.59 659.21 543.92Q658.61 544.24 658.24 544.98Q657.86 545.73 657.86 547Q657.86 548.3 658.25 549.05Q658.63 549.81 659.22 550.13Q659.81 550.46 660.46 550.46Q661.22 550.46 661.75 550.16Q662.28 549.86 662.59 549.33L665.57 550.41Q664.97 551.49 664.08 552.12Q663.19 552.76 662.2 553.02Q661.2 553.29 660.24 553.29Z M672.94 553.29Q671.28 553.29 669.84 552.62Q668.4 551.94 667.51 550.54Q666.62 549.14 666.62 547Q666.62 544.84 667.51 543.46Q668.4 542.08 669.84 541.42Q671.28 540.76 672.94 540.76Q674.57 540.76 676.01 541.42Q677.45 542.08 678.34 543.46Q679.22 544.84 679.22 547Q679.22 549.14 678.34 550.54Q677.45 551.94 676.01 552.62Q674.57 553.29 672.94 553.29ZM672.94 550.46Q674.04 550.46 674.77 549.66Q675.5 548.87 675.5 547Q675.5 545.1 674.75 544.35Q673.99 543.59 672.94 543.59Q671.86 543.59 671.1 544.35Q670.34 545.1 670.34 547Q670.34 548.87 671.09 549.66Q671.83 550.46 672.94 550.46Z M681 553V541.1H683.88L684.53 543.28Q685.08 541.84 686.04 541.26Q687 540.69 688.37 540.76V544.41Q688.08 544.36 687.86 544.35Q687.65 544.34 687.38 544.34Q686.06 544.34 685.36 544.96Q684.65 545.58 684.65 547V553Z M695.83 553.29Q693.91 553.29 692.44 552.53Q690.96 551.78 690.13 550.36Q689.3 548.94 689.3 546.98Q689.3 545.08 690.18 543.69Q691.06 542.3 692.51 541.53Q693.96 540.76 695.69 540.76Q697.66 540.76 699.06 541.68Q700.46 542.61 701.18 544.23Q701.9 545.85 701.78 547.96H692.98Q693.07 549.21 693.9 549.83Q694.73 550.46 695.74 550.46Q696.58 550.46 697.19 550.2Q697.8 549.95 698.14 549.57L701.04 550.62Q700.1 551.99 698.7 552.64Q697.3 553.29 695.83 553.29ZM692.98 545.8H698.4Q698.38 544.65 697.61 544.06Q696.84 543.47 695.78 543.47Q694.75 543.47 693.95 544.02Q693.14 544.58 692.98 545.8Z M703.51 553V541.1H706.7L707.16 542.68Q707.57 542.01 708.5 541.38Q709.44 540.76 710.76 540.76Q712.18 540.76 713.03 541.26Q713.88 541.77 714.29 542.75Q714.98 541.77 716.05 541.26Q717.12 540.76 718.37 540.76Q720.65 540.76 721.51 542.04Q722.38 543.33 722.38 545.75V553H718.73V546.66Q718.73 545.82 718.63 545.13Q718.54 544.43 718.15 544.01Q717.77 543.59 716.88 543.59Q715.78 543.59 715.27 544.37Q714.77 545.15 714.77 546.71V553H711.1V546.66Q711.1 545.82 711.01 545.13Q710.93 544.43 710.56 544.01Q710.18 543.59 709.32 543.59Q708.19 543.59 707.68 544.41Q707.16 545.22 707.16 546.78V553Z M730.46 553.29Q728.81 553.29 727.37 552.62Q725.93 551.94 725.04 550.54Q724.15 549.14 724.15 547Q724.15 544.84 725.04 543.46Q725.93 542.08 727.37 541.42Q728.81 540.76 730.46 540.76Q732.1 540.76 733.54 541.42Q734.98 542.08 735.86 543.46Q736.75 544.84 736.75 547Q736.75 549.14 735.86 550.54Q734.98 551.94 733.54 552.62Q732.1 553.29 730.46 553.29ZM730.46 550.46Q731.57 550.46 732.3 549.66Q733.03 548.87 733.03 547Q733.03 545.1 732.28 544.35Q731.52 543.59 730.46 543.59Q729.38 543.59 728.63 544.35Q727.87 545.1 727.87 547Q727.87 548.87 728.62 549.66Q729.36 550.46 730.46 550.46Z M743.16 553.29Q741.62 553.29 740.44 552.52Q739.25 551.75 738.58 550.32Q737.9 548.9 737.9 546.95Q737.9 545.01 738.58 543.63Q739.25 542.25 740.44 541.5Q741.62 540.76 743.16 540.76Q744.14 540.76 745.18 541.25Q746.21 541.74 746.78 542.73V536.97H750.43V548.34Q750.43 549.23 750.52 550.46Q750.6 551.68 750.84 553H747.36L746.88 551.39Q746.14 552.42 745.14 552.86Q744.14 553.29 743.16 553.29ZM744.34 550.46Q745.39 550.46 746.17 549.66Q746.95 548.87 746.95 547.02Q746.95 545.2 746.17 544.4Q745.39 543.59 744.34 543.59Q743.26 543.59 742.48 544.46Q741.7 545.32 741.7 546.95Q741.7 548.61 742.48 549.53Q743.26 550.46 744.34 550.46Z M758.74 553.29Q756.82 553.29 755.34 552.53Q753.86 551.78 753.04 550.36Q752.21 548.94 752.21 546.98Q752.21 545.08 753.08 543.69Q753.96 542.3 755.41 541.53Q756.86 540.76 758.59 540.76Q760.56 540.76 761.96 541.68Q763.37 542.61 764.09 544.23Q764.81 545.85 764.69 547.96H755.88Q755.98 549.21 756.8 549.83Q757.63 550.46 758.64 550.46Q759.48 550.46 760.09 550.2Q760.7 549.95 761.04 549.57L763.94 550.62Q763.01 551.99 761.6 552.64Q760.2 553.29 758.74 553.29ZM755.88 545.8H761.3Q761.28 544.65 760.51 544.06Q759.74 543.47 758.69 543.47Q757.66 543.47 756.85 544.02Q756.05 544.58 755.88 545.8Z M770.35 553Q768.89 553 768.02 552.75Q767.16 552.5 766.79 551.76Q766.42 551.03 766.42 549.64V536.97H770.06V548.68Q770.06 549.52 770.4 549.77Q770.74 550.02 771.65 550.02H772.68V553Z"/>
</svg>
